<!-- Exported by Character Map UWP -->
<svg height="100%" viewBox="1 25 1023 975" width="100%" xmlns="http://www.w3.org/2000/svg" xmlns:xlink="http://www.w3.org/1999/xlink">
  <path d="M216.5,999C207.833,999 200.25,995.917 193.75,989.75C187.25,983.583 184,976.167 184,967.5C184,964.833 184.167,963 184.5,962L238,649L10.5,427C4.16667,421 1,413.333 1,404C1,396.333 3.66667,389.417 9,383.25C14.3333,377.083 20.8333,373.5 28.5,372.5L342.5,327L483.5,42C486.167,36.3334 490.083,32 495.25,29C500.417,26 506.167,24.5 512.5,24.5C518.167,24.5 523.5,26.0834 528.5,29.25C533.5,32.4167 537.333,36.3334 540,41L691,320L992,320C1000.67,320 1008.17,323.167 1014.5,329.5C1020.83,335.833 1024,343.333 1024,352C1024,360.667 1020.83,368.167 1014.5,374.5C1008.17,380.833 1000.67,384 992,384L672,384C666.333,384 660.917,382.417 655.75,379.25C650.583,376.083 646.667,372 644,367L513.5,126L392.5,370.5C387.833,380.5 379.833,386.333 368.5,388L102,426.5L295,615C301.333,621.333 304.5,628.833 304.5,637.5C304.5,639.833 304.333,641.667 304,643L258.5,909L497,783.5C501.333,781.167 506.333,780 512,780C520.667,780 528.167,783.083 534.5,789.25C540.833,795.417 544,802.833 544,811.5C544,817.5 542.5,823.083 539.5,828.25C536.5,833.417 532.333,837.333 527,840L231,995.5C226.667,997.833 221.833,999 216.5,999ZM672,576C663.333,576 655.833,572.833 649.5,566.5C643.167,560.167 640,552.667 640,544C640,535.333 643.167,527.833 649.5,521.5C655.833,515.167 663.333,512 672,512L992,512C1000.67,512 1008.17,515.167 1014.5,521.5C1020.83,527.833 1024,535.333 1024,544C1024,552.667 1020.83,560.167 1014.5,566.5C1008.17,572.833 1000.67,576 992,576ZM672,768C663.333,768 655.833,764.833 649.5,758.5C643.167,752.167 640,744.667 640,736C640,727.333 643.167,719.833 649.5,713.5C655.833,707.167 663.333,704 672,704L992,704C1000.67,704 1008.17,707.167 1014.5,713.5C1020.83,719.833 1024,727.333 1024,736C1024,744.667 1020.83,752.167 1014.5,758.5C1008.17,764.833 1000.67,768 992,768Z" fill="#FFFFFF" fill-opacity="1">
  </path>
</svg>