<!-- Exported by Character Map UWP -->
<svg height="100%" viewBox="0 0 1024 1024" width="100%" xmlns="http://www.w3.org/2000/svg" xmlns:xlink="http://www.w3.org/1999/xlink">
  <path d="M512,620.5L131,1001.5C124,1008.5 115.75,1014 106.25,1018C96.75,1022 87,1024 77,1024C66.3333,1024 56.3333,1022 47,1018C37.6667,1014 29.5,1008.5 22.5,1001.5C15.5,994.5 10,986.333 6,977C2,967.667 0,957.667 0,947C0,937 2,927.25 6,917.75C10,908.25 15.5,900 22.5,893L403.5,512L22.5,131C15.1667,123.667 9.58333,115.25 5.75,105.75C1.91667,96.25 0,86.5 0,76.5C0,65.8334 2,55.8334 6,46.5C10,37.1667 15.5,29.0834 22.5,22.25C29.5,15.4167 37.6667,10 47,6C56.3333,2 66.3333,0 77,0C87,0 96.75,2 106.25,6C115.75,10 124,15.5 131,22.5L512,403.5L893,22.5C908,7.5 926.167,0 947.5,0C957.833,0 967.667,2 977,6C986.333,10 994.5,15.5 1001.5,22.5C1008.5,29.5 1014,37.6667 1018,47C1022,56.3334 1024,66.1667 1024,76.5C1024,86.5 1022.08,96.25 1018.25,105.75C1014.42,115.25 1008.83,123.667 1001.5,131L620.5,512L1001.5,893C1008.5,900 1014,908.25 1018,917.75C1022,927.25 1024,937 1024,947C1024,957.667 1022,967.667 1018,977C1014,986.333 1008.5,994.5 1001.5,1001.5C994.5,1008.5 986.333,1014 977,1018C967.667,1022 957.667,1024 947,1024C937,1024 927.25,1022 917.75,1018C908.25,1014 900,1008.5 893,1001.5Z" fill="#FFFFFF" fill-opacity="1">
  </path>
</svg>