<!-- Exported by Character Map UWP -->
<svg height="100%" viewBox="0 0 1024 1024" width="100%" xmlns="http://www.w3.org/2000/svg" xmlns:xlink="http://www.w3.org/1999/xlink">
  <path d="M175.5,1024C152.167,1024 129.917,1019.25 108.75,1009.75C87.5833,1000.25 68.9167,987.417 52.75,971.25C36.5833,955.083 23.75,936.417 14.25,915.25C4.75,894.083 0,871.833 0,848.5L0,175.5C0,152.167 4.75,129.917 14.25,108.75C23.75,87.5834 36.5833,68.9167 52.75,52.75C68.9167,36.5834 87.5833,23.75 108.75,14.25C129.917,4.75 152.167,0 175.5,0L848.5,0C871.833,0 894.083,4.75 915.25,14.25C936.417,23.75 955.083,36.5834 971.25,52.75C987.417,68.9167 1000.25,87.5834 1009.75,108.75C1019.25,129.917 1024,152.167 1024,175.5L1024,848.5C1024,871.833 1019.25,894.083 1009.75,915.25C1000.25,936.417 987.417,955.083 971.25,971.25C955.083,987.417 936.417,1000.25 915.25,1009.75C894.083,1019.25 871.833,1024 848.5,1024ZM845,870.5C852,870.5 858,868 863,863C868,858 870.5,852 870.5,845L870.5,179C870.5,172 868,166 863,161C858,156 852,153.5 845,153.5L179,153.5C172,153.5 166,156 161,161C156,166 153.5,172 153.5,179L153.5,845C153.5,852 156,858 161,863C166,868 172,870.5 179,870.5Z" fill="#FFFFFF" fill-opacity="1">
  </path>
</svg>