<!-- Exported by Character Map UWP -->
<svg height="100%" viewBox="0 384 1024 154" width="100%" xmlns="http://www.w3.org/2000/svg" xmlns:xlink="http://www.w3.org/1999/xlink">
  <path d="M77,537.5C66.3333,537.5 56.3333,535.5 47,531.5C37.6667,527.5 29.5,522.083 22.5,515.25C15.5,508.417 10,500.333 6,491C2,481.667 0,471.667 0,461C0,450.333 2,440.333 6,431C10,421.667 15.5,413.5 22.5,406.5C29.5,399.5 37.6667,394 47,390C56.3333,386 66.3333,384 77,384L947,384C957.667,384 967.667,386 977,390C986.333,394 994.5,399.5 1001.5,406.5C1008.5,413.5 1014,421.667 1018,431C1022,440.333 1024,450.333 1024,461C1024,471.667 1021.92,481.667 1017.75,491C1013.58,500.333 1008,508.417 1001,515.25C994,522.083 985.833,527.5 976.5,531.5C967.167,535.5 957.333,537.5 947,537.5Z" fill="#FFFFFF" fill-opacity="1">
  </path>
</svg>