<!-- Exported by Character Map UWP -->
<svg height="100%" viewBox="0 0 1024 1024" width="100%" xmlns="http://www.w3.org/2000/svg" xmlns:xlink="http://www.w3.org/1999/xlink">
  <path d="M870.5,329.5C870.5,305.5 865.583,282.833 855.75,261.5C845.917,240.167 832.75,221.5 816.25,205.5C799.75,189.5 780.667,176.833 759,167.5C737.333,158.167 714.667,153.5 691,153.5L206.5,153.5C209.167,132.167 215.75,112.167 226.25,93.5C236.75,74.8334 249.833,58.5834 265.5,44.75C281.167,30.9167 298.917,20 318.75,12C338.583,4 359.333,0 381,0L691,0C721,0 750,3.83337 778,11.5C806,19.1667 832.417,30.1667 857.25,44.5C882.083,58.8334 904.833,76.25 925.5,96.75C946.167,117.25 964,140.333 979,166C1009,217.667 1024,273.333 1024,333L1024,643C1024,664.667 1020,685.417 1012,705.25C1004,725.083 993.083,742.833 979.25,758.5C965.417,774.167 949.167,787.25 930.5,797.75C911.833,808.25 891.833,814.833 870.5,817.5ZM175.5,1024C152.167,1024 129.917,1019.25 108.75,1009.75C87.5833,1000.25 68.9167,987.417 52.75,971.25C36.5833,955.083 23.75,936.417 14.25,915.25C4.75,894.083 0,871.833 0,848.5L0,380.5C0,357.167 4.75,334.917 14.25,313.75C23.75,292.583 36.5833,273.917 52.75,257.75C68.9167,241.583 87.5833,228.75 108.75,219.25C129.917,209.75 152.167,205 175.5,205L643.5,205C666.833,205 689.167,209.75 710.5,219.25C731.833,228.75 750.5,241.5 766.5,257.5C782.5,273.5 795.25,292.167 804.75,313.5C814.25,334.833 819,357.167 819,380.5L819,848.5C819,871.833 814.25,894.083 804.75,915.25C795.25,936.417 782.417,955.083 766.25,971.25C750.083,987.417 731.417,1000.25 710.25,1009.75C689.083,1019.25 666.833,1024 643.5,1024ZM640,870.5C647,870.5 653,868 658,863C663,858 665.5,852 665.5,845L665.5,384C665.5,377 663,371 658,366C653,361 647,358.5 640,358.5L179,358.5C172,358.5 166,361 161,366C156,371 153.5,377 153.5,384L153.5,845C153.5,852 156,858 161,863C166,868 172,870.5 179,870.5Z" fill="#FFFFFF" fill-opacity="1">
  </path>
</svg>