<!-- Exported by Character Map UWP -->
<svg height="100%" viewBox="64 64 960 960" width="100%" xmlns="http://www.w3.org/2000/svg" xmlns:xlink="http://www.w3.org/1999/xlink">
  <path d="M384,896L384,917.5C384,924.5 384.167,931.583 384.5,938.75C384.833,945.917 385.667,953 387,960L252,960C227,960 203.083,954.917 180.25,944.75C157.417,934.583 137.417,920.917 120.25,903.75C103.083,886.583 89.4167,866.583 79.25,843.75C69.0833,820.917 64,797 64,772L64,252C64,227 69.0833,203.083 79.25,180.25C89.4167,157.417 103.083,137.417 120.25,120.25C137.417,103.083 157.417,89.4167 180.25,79.25C203.083,69.0834 227,64.0001 252,64L772,64C797,64.0001 820.917,69.0834 843.75,79.25C866.583,89.4167 886.583,103.083 903.75,120.25C920.917,137.417 934.583,157.417 944.75,180.25C954.917,203.083 960,227 960,252L960,515.5L957,514.5C953.333,494.833 946.25,476.5 935.75,459.5C925.25,442.5 912,428 896,416L896,320L128,320L128,770.5C128,787.833 131.5,804.083 138.5,819.25C145.5,834.417 154.833,847.667 166.5,859C178.167,870.333 191.75,879.333 207.25,886C222.75,892.667 239,896 256,896ZM253.5,128C236.5,128 220.333,131.5 205,138.5C189.667,145.5 176.333,154.833 165,166.5C153.667,178.167 144.667,191.75 138,207.25C131.333,222.75 128,239 128,256L896,256L896,253.5C896,236.833 892.583,220.917 885.75,205.75C878.917,190.583 869.75,177.25 858.25,165.75C846.75,154.25 833.417,145.083 818.25,138.25C803.083,131.417 787.167,128 770.5,128ZM1024,672L1024,768L896,768L896,751C896,745.333 895.667,739.667 895,734C894.333,728.333 892.917,723.25 890.75,718.75C888.583,714.25 885.333,710.667 881,708C876.667,705.333 871,704 864,704C856.667,704 850.833,705.417 846.5,708.25C842.167,711.083 838.917,714.75 836.75,719.25C834.583,723.75 833.25,728.917 832.75,734.75C832.25,740.583 832,746.333 832,752L832,768L640,768L640,751C640,745.333 639.667,739.667 639,734C638.333,728.333 636.917,723.25 634.75,718.75C632.583,714.25 629.333,710.667 625,708C620.667,705.333 615,704 608,704C600.667,704 594.833,705.417 590.5,708.25C586.167,711.083 582.917,714.75 580.75,719.25C578.583,723.75 577.25,728.917 576.75,734.75C576.25,740.583 576,746.333 576,752L576,768L448,768L448,672C448,658.667 450.5,646.167 455.5,634.5C460.5,622.833 467.333,612.667 476,604C484.667,595.333 494.833,588.5 506.5,583.5C518.167,578.5 530.667,576 544,576L576,576L576,544C576,530.667 578.5,518.167 583.5,506.5C588.5,494.833 595.333,484.667 604,476C612.667,467.333 622.833,460.5 634.5,455.5C646.167,450.5 658.667,448 672,448L800,448C813,448 825.333,450.5 837,455.5C848.667,460.5 858.917,467.417 867.75,476.25C876.583,485.083 883.5,495.333 888.5,507C893.5,518.667 896,531 896,544L896,576L928,576C941,576 953.333,578.5 965,583.5C976.667,588.5 986.917,595.417 995.75,604.25C1004.58,613.083 1011.5,623.333 1016.5,635C1021.5,646.667 1024,659 1024,672ZM832,576L832,544C832,535.333 828.833,527.833 822.5,521.5C816.167,515.167 808.667,512 800,512L672,512C663.333,512 655.833,515.167 649.5,521.5C643.167,527.833 640,535.333 640,544L640,576ZM896,832L1024,832L1024,928C1024,941 1021.5,953.333 1016.5,965C1011.5,976.667 1004.58,986.917 995.75,995.75C986.917,1004.58 976.667,1011.5 965,1016.5C953.333,1021.5 941,1024 928,1024L544,1024C530.667,1024 518.167,1021.5 506.5,1016.5C494.833,1011.5 484.667,1004.67 476,996C467.333,987.333 460.5,977.167 455.5,965.5C450.5,953.833 448,941.333 448,928L448,832L576,832L576,849.5C576,855.167 576.333,860.833 577,866.5C577.667,872.167 579.083,877.167 581.25,881.5C583.417,885.833 586.667,889.333 591,892C595.333,894.667 601,896 608,896C615.333,896 621.083,894.583 625.25,891.75C629.417,888.917 632.583,885.25 634.75,880.75C636.917,876.25 638.333,871.167 639,865.5C639.667,859.833 640,854.167 640,848.5L640,832L832,832L832,849.5C832,855.167 832.333,860.833 833,866.5C833.667,872.167 835.083,877.167 837.25,881.5C839.417,885.833 842.667,889.333 847,892C851.333,894.667 857,896 864,896C871.333,896 877.083,894.583 881.25,891.75C885.417,888.917 888.583,885.25 890.75,880.75C892.917,876.25 894.333,871.167 895,865.5C895.667,859.833 896,854.167 896,848.5Z" fill="#000000" fill-opacity="1">
  </path>
</svg>