<!-- Exported by Character Map UWP -->
<svg height="100%" viewBox="64 65 936 896" width="100%" xmlns="http://www.w3.org/2000/svg" xmlns:xlink="http://www.w3.org/1999/xlink">
  <path d="M676,704C665.667,704 657.083,700.333 650.25,693C643.417,685.667 640,677 640,667L640,533C629.333,534 618.667,535.083 608,536.25C597.333,537.417 586.667,539.333 576,542C547.667,548.667 521.083,556.667 496.25,566C471.417,575.333 447.583,586.25 424.75,598.75C401.917,611.25 379.667,625.333 358,641C336.333,656.667 314.833,674 293.5,693C289.833,696 286,698.417 282,700.25C278,702.083 273.667,703 269,703C258.333,703 249.5,699.25 242.5,691.75C235.5,684.25 232,675.333 232,665L232,662C239.667,601.667 253.083,546.167 272.25,495.5C291.417,444.833 317.5,401 350.5,364C383.5,327 423.833,297.5 471.5,275.5C519.167,253.5 575.333,240.833 640,237.5L640,101C640,91 643.333,82.4167 650,75.25C656.667,68.0834 665.167,64.5 675.5,64.5C685.833,64.5 694.333,67.8334 701,74.5L989,357.5C992.667,361.167 995.333,365.417 997,370.25C998.667,375.083 999.5,380 999.5,385C999.5,395 996,403.5 989,410.5L701,693.5C694,700.5 685.667,704 676,704ZM220.5,960C199.5,960 179.5,955.75 160.5,947.25C141.5,938.75 124.917,927.417 110.75,913.25C96.5833,899.083 85.25,882.5 76.75,863.5C68.25,844.5 64,824.5 64,803.5L64,284.5C64,263.5 68.25,243.5 76.75,224.5C85.25,205.5 96.5833,188.917 110.75,174.75C124.917,160.583 141.5,149.25 160.5,140.75C179.5,132.25 199.5,128 220.5,128L416,128C424.667,128 432.167,131.167 438.5,137.5C444.833,143.833 448,151.333 448,160C448,168.667 444.833,176.167 438.5,182.5C432.167,188.833 424.667,192 416,192L224,192C211,192 198.667,194.5 187,199.5C175.333,204.5 165.083,211.417 156.25,220.25C147.417,229.083 140.5,239.333 135.5,251C130.5,262.667 128,275 128,288L128,800C128,813 130.5,825.333 135.5,837C140.5,848.667 147.417,858.917 156.25,867.75C165.083,876.583 175.333,883.5 187,888.5C198.667,893.5 211,896 224,896L736,896C749,896 761.333,893.5 773,888.5C784.667,883.5 794.917,876.583 803.75,867.75C812.583,858.917 819.5,848.667 824.5,837C829.5,825.333 832,813 832,800L832,736C832,727.333 835.167,719.833 841.5,713.5C847.833,707.167 855.333,704 864,704C872.667,704 880.167,707.167 886.5,713.5C892.833,719.833 896,727.333 896,736L896,800C896,821.333 891.917,841.667 883.75,861C875.583,880.333 864.417,897.333 850.25,912C836.083,926.667 819.5,938.333 800.5,947C781.5,955.667 761.167,960 739.5,960ZM704,601L924.5,384L704,167L704,297L630.5,302C587.167,304.667 545.833,314 506.5,330C467.167,346 432.5,370.167 402.5,402.5C390.5,415.5 379.417,429.75 369.25,445.25C359.083,460.75 350,477 342,494C334,511 327.083,528.417 321.25,546.25C315.417,564.083 311,581.667 308,599C353.333,563 401.833,534.5 453.5,513.5C505.167,492.5 559.5,478.167 616.5,470.5C630.833,468.5 645.333,467.083 660,466.25C674.667,465.417 689.333,464.333 704,463Z" fill="#000000" fill-opacity="1">
  </path>
</svg>