<!-- Exported by Character Map UWP -->
<svg height="100%" viewBox="0 64 1024 832" width="100%" xmlns="http://www.w3.org/2000/svg" xmlns:xlink="http://www.w3.org/1999/xlink">
  <path d="M32,128C23.3333,128 15.8333,124.833 9.5,118.5C3.16667,112.167 0,104.667 0,96C0,87 3.08333,79.4167 9.25,73.25C15.4167,67.0834 23,64.0001 32,64L736,64C744.667,64.0001 752.167,67.1667 758.5,73.5C764.833,79.8334 768,87.3334 768,96C768,104.667 764.833,112.167 758.5,118.5C752.167,124.833 744.667,128 736,128ZM32,512.5C23.3333,512.5 15.8333,509.333 9.5,503C3.16667,496.667 0,489.167 0,480.5C0,471.5 3.08333,463.917 9.25,457.75C15.4167,451.583 23,448.5 32,448.5L992,448.5C1000.67,448.5 1008.17,451.667 1014.5,458C1020.83,464.333 1024,471.833 1024,480.5C1024,489.5 1020.92,497.083 1014.75,503.25C1008.58,509.417 1001,512.5 992,512.5ZM32,896C23.3333,896 15.8333,892.833 9.5,886.5C3.16667,880.167 0,872.667 0,864C0,855 3.08333,847.417 9.25,841.25C15.4167,835.083 23,832 32,832L672,832C680.667,832 688.167,835.167 694.5,841.5C700.833,847.833 704,855.333 704,864C704,873 700.917,880.583 694.75,886.75C688.583,892.917 681,896 672,896Z" fill="#FFFFFF" fill-opacity="1">
  </path>
</svg>