<!-- Exported by Character Map UWP -->
<svg height="100%" viewBox="64 0 960 1024" width="100%" xmlns="http://www.w3.org/2000/svg" xmlns:xlink="http://www.w3.org/1999/xlink">
  <path d="M444,960C453,972 462.833,983.333 473.5,994C484.167,1004.67 495.333,1014.67 507,1024L189.5,1024C172.833,1024 156.917,1020.58 141.75,1013.75C126.583,1006.92 113.25,997.75 101.75,986.25C90.25,974.75 81.0833,961.417 74.25,946.25C67.4167,931.083 64,915.167 64,898.5L64,125.5C64,108.833 67.4167,92.9167 74.25,77.75C81.0833,62.5834 90.25,49.2501 101.75,37.75C113.25,26.2501 126.583,17.0834 141.75,10.25C156.917,3.41669 172.833,0 189.5,0L706.5,0C723.167,0 739.083,3.41669 754.25,10.25C769.417,17.0834 782.75,26.2501 794.25,37.75C805.75,49.2501 814.917,62.5834 821.75,77.75C828.583,92.9167 832,108.833 832,125.5L832,380.5C821.333,377.5 810.667,375.167 800,373.5C789.333,371.833 778.667,370.5 768,369.5L768,128C768,119.333 766.333,111.083 763,103.25C759.667,95.4167 755.083,88.5834 749.25,82.75C743.417,76.9167 736.583,72.3334 728.75,69C720.917,65.6667 712.667,64.0001 704,64L192,64C183,64.0001 174.667,65.6667 167,69C159.333,72.3334 152.583,76.9167 146.75,82.75C140.917,88.5834 136.333,95.3334 133,103C129.667,110.667 128,119 128,128L128,832L380.5,832C386.5,854.333 394.5,875.667 404.5,896L128,896C128,905 129.667,913.417 133,921.25C136.333,929.083 140.833,935.833 146.5,941.5C152.167,947.167 158.917,951.667 166.75,955C174.583,958.333 183,960 192,960ZM640,128C648.667,128 656.917,129.667 664.75,133C672.583,136.333 679.417,140.917 685.25,146.75C691.083,152.583 695.667,159.417 699,167.25C702.333,175.083 704,183.333 704,192L704,256C704,265 702.333,273.333 699,281C695.667,288.667 691.083,295.417 685.25,301.25C679.417,307.083 672.667,311.667 665,315C657.333,318.333 649,320 640,320L256,320C247,320 238.583,318.333 230.75,315C222.917,311.667 216.167,307.167 210.5,301.5C204.833,295.833 200.333,289.083 197,281.25C193.667,273.417 192,265 192,256L192,192C192,183 193.667,174.667 197,167C200.333,159.333 204.917,152.583 210.75,146.75C216.583,140.917 223.333,136.333 231,133C238.667,129.667 247,128 256,128ZM256,256L640,256L640,192L256,192ZM1024,736C1024,775.667 1016.42,813 1001.25,848C986.083,883 965.5,913.5 939.5,939.5C913.5,965.5 883,986.083 848,1001.25C813,1016.42 775.667,1024 736,1024C696,1024 658.5,1016.5 623.5,1001.5C588.5,986.5 558,966 532,940C506,914 485.5,883.5 470.5,848.5C455.5,813.5 448,776 448,736C448,696.333 455.583,659 470.75,624C485.917,589 506.5,558.5 532.5,532.5C558.5,506.5 589,485.917 624,470.75C659,455.583 696.333,448 736,448C762.333,448 787.75,451.417 812.25,458.25C836.75,465.083 859.667,474.75 881,487.25C902.333,499.75 921.833,514.833 939.5,532.5C957.167,550.167 972.25,569.667 984.75,591C997.25,612.333 1006.92,635.25 1013.75,659.75C1020.58,684.25 1024,709.667 1024,736ZM896,736C896,727.333 892.833,719.833 886.5,713.5C880.167,707.167 872.667,704 864,704L768,704L768,608C768,599.333 764.833,591.833 758.5,585.5C752.167,579.167 744.667,576 736,576C727.333,576 719.833,579.167 713.5,585.5C707.167,591.833 704,599.333 704,608L704,704L608,704C599.333,704 591.833,707.167 585.5,713.5C579.167,719.833 576,727.333 576,736C576,744.667 579.167,752.167 585.5,758.5C591.833,764.833 599.333,768 608,768L704,768L704,864C704,872.667 707.167,880.167 713.5,886.5C719.833,892.833 727.333,896 736,896C744.667,896 752.167,892.833 758.5,886.5C764.833,880.167 768,872.667 768,864L768,768L864,768C872.667,768 880.167,764.833 886.5,758.5C892.833,752.167 896,744.667 896,736Z" fill="#000000" fill-opacity="1">
  </path>
</svg>