<!-- Exported by Character Map UWP -->
<svg height="100%" viewBox="0 0 960 1024" width="100%" xmlns="http://www.w3.org/2000/svg" xmlns:xlink="http://www.w3.org/1999/xlink">
  <path d="M960,544C960,552.667 956.833,560.167 950.5,566.5L504,1013C500.333,1016.67 496.75,1019.42 493.25,1021.25C489.75,1023.08 485.333,1024 480,1024C474.667,1024 470.25,1023.08 466.75,1021.25C463.25,1019.42 459.667,1016.67 456,1013L9.5,566.5C3.16667,560.167 0,552.667 0,544C0,535.333 3.16667,527.833 9.5,521.5C15.8333,515.167 23.3333,512 32,512C40.6667,512 48.1667,515.167 54.5,521.5L448,914.5L448,32C448,23.3334 451.167,15.8334 457.5,9.5C463.833,3.16669 471.333,0 480,0C488.667,0 496.167,3.16669 502.5,9.5C508.833,15.8334 512,23.3334 512,32L512,914.5L905.5,521.5C911.833,515.167 919.333,512 928,512C936.667,512 944.167,515.167 950.5,521.5C956.833,527.833 960,535.333 960,544Z" fill="#000000" fill-opacity="1">
  </path>
</svg>