<!-- Exported by Character Map UWP -->
<svg height="100%" viewBox="96 64 832 896" width="100%" xmlns="http://www.w3.org/2000/svg" xmlns:xlink="http://www.w3.org/1999/xlink">
  <path d="M512,64C541.333,64.0001 569.667,67.8334 597,75.5C624.333,83.1667 649.833,93.9167 673.5,107.75C697.167,121.583 718.75,138.25 738.25,157.75C757.75,177.25 774.417,198.833 788.25,222.5C802.083,246.167 812.833,271.667 820.5,299C828.167,326.333 832,354.667 832,384L832,619.5L915,729.5C919,735.167 922.167,741.25 924.5,747.75C926.833,754.25 928,760.833 928,767.5C928,776.5 926.333,784.917 923,792.75C919.667,800.583 915.083,807.417 909.25,813.25C903.417,819.083 896.583,823.667 888.75,827C880.917,830.333 872.5,832 863.5,832L669,832C665,850.667 658.167,867.833 648.5,883.5C638.833,899.167 627.083,912.667 613.25,924C599.417,935.333 583.833,944.167 566.5,950.5C549.167,956.833 531,960 512,960C493,960 474.833,956.833 457.5,950.5C440.167,944.167 424.583,935.333 410.75,924C396.917,912.667 385.167,899.167 375.5,883.5C365.833,867.833 359,850.667 355,832L160.5,832C151.5,832 143.083,830.333 135.25,827C127.417,823.667 120.583,819.083 114.75,813.25C108.917,807.417 104.333,800.583 101,792.75C97.6667,784.917 96,776.5 96,767.5C96,760.833 97.1667,754.25 99.5,747.75C101.833,741.25 105,735.167 109,729.5L192,619.5L192,384C192,354.667 195.833,326.333 203.5,299C211.167,271.667 221.917,246.167 235.75,222.5C249.583,198.833 266.25,177.25 285.75,157.75C305.25,138.25 326.833,121.583 350.5,107.75C374.167,93.9167 399.667,83.1667 427,75.5C454.333,67.8334 482.667,64.0001 512,64ZM512,128C476.667,128 443.417,134.667 412.25,148C381.083,161.333 353.917,179.583 330.75,202.75C307.583,225.917 289.333,253.083 276,284.25C262.667,315.417 256,348.667 256,384L256,625C256,630 255.167,635.083 253.5,640.25C251.833,645.417 249.5,650 246.5,654L160.5,768L863.5,768L777.5,654C774.5,650 772.167,645.417 770.5,640.25C768.833,635.083 768,630 768,625L768,384C768,348.667 761.333,315.417 748,284.25C734.667,253.083 716.417,225.917 693.25,202.75C670.083,179.583 642.917,161.333 611.75,148C580.583,134.667 547.333,128 512,128ZM421.5,832C424.833,841.667 429.5,850.417 435.5,858.25C441.5,866.083 448.5,872.833 456.5,878.5C464.5,884.167 473.25,888.5 482.75,891.5C492.25,894.5 502,896 512,896C522,896 531.75,894.5 541.25,891.5C550.75,888.5 559.5,884.167 567.5,878.5C575.5,872.833 582.5,866.083 588.5,858.25C594.5,850.417 599.167,841.667 602.5,832Z" fill="#000000" fill-opacity="1">
  </path>
</svg>