<!-- Exported by Character Map UWP -->
<svg height="100%" viewBox="0 128 1024 704" width="100%" xmlns="http://www.w3.org/2000/svg" xmlns:xlink="http://www.w3.org/1999/xlink">
  <path d="M64,160L64,800C64,808.667 60.8333,816.167 54.5,822.5C48.1667,828.833 40.6667,832 32,832C23.3333,832 15.8333,828.833 9.5,822.5C3.16667,816.167 0,808.667 0,800L0,160C0,151.333 3.16667,143.833 9.5,137.5C15.8333,131.167 23.3333,128 32,128C40.6667,128 48.1667,131.167 54.5,137.5C60.8333,143.833 64,151.333 64,160ZM704,800C695.333,800 687.833,796.833 681.5,790.5C675.167,784.167 672,776.667 672,768C672,759.333 675.167,751.833 681.5,745.5L914.5,512L160,512C151.333,512 143.833,508.833 137.5,502.5C131.167,496.167 128,488.667 128,480C128,471.333 131.167,463.833 137.5,457.5C143.833,451.167 151.333,448 160,448L914.5,448L681.5,214.5C675.167,208.167 672,200.667 672,192C672,183.333 675.167,175.833 681.5,169.5C687.833,163.167 695.333,160 704,160C712.667,160 720.167,163.167 726.5,169.5L1013,456C1016.67,459.667 1019.42,463.333 1021.25,467C1023.08,470.667 1024,475 1024,480C1024,485 1023.08,489.333 1021.25,493C1019.42,496.667 1016.67,500.333 1013,504L726.5,790.5C720.167,796.833 712.667,800 704,800Z" fill="#FFFFFF" fill-opacity="1">
  </path>
</svg>