<!-- Exported by Character Map UWP -->
<svg height="100%" viewBox="1 25 1022 975" width="100%" xmlns="http://www.w3.org/2000/svg" xmlns:xlink="http://www.w3.org/1999/xlink">
  <path d="M238,649L10.5,427.5C4.16667,421.167 1,413.667 1,405C1,397.333 3.66667,390.333 9,384C14.3333,377.667 20.8333,373.833 28.5,372.5L342.5,327L483.5,42C486.167,36.6667 490.167,32.4167 495.5,29.25C500.833,26.0834 506.333,24.5 512,24.5C517.667,24.5 523.167,26.0834 528.5,29.25C533.833,32.4167 537.833,36.6667 540.5,42L681.5,327L995.5,372.5C1003.5,373.833 1010.08,377.5 1015.25,383.5C1020.42,389.5 1023,396.5 1023,404.5C1023,413.5 1019.83,421.167 1013.5,427.5L786,649L839.5,962C839.833,963.333 840,965.167 840,967.5C840,976.167 836.833,983.667 830.5,990C824.167,996.333 816.667,999.5 808,999.5C802.333,999.5 797.333,998.333 793,996L512,848L231,996C226.667,998.333 221.667,999.5 216,999.5C207.333,999.5 199.833,996.333 193.5,990C187.167,983.667 184,976.167 184,967.5C184,965.167 184.167,963.333 184.5,962ZM258.5,909L512,775.5L765.5,909C757.5,861.667 749.583,814.583 741.75,767.75C733.917,720.917 725.667,673.833 717,626.5L922.5,426.5L639,385.5C617.333,342.5 596.083,299.667 575.25,257C554.417,214.333 533.333,171.5 512,128.5C490.667,171.5 469.583,214.333 448.75,257C427.917,299.667 406.667,342.5 385,385.5L101.5,426.5L307,626.5C298.333,673.833 290.083,720.917 282.25,767.75C274.417,814.583 266.5,861.667 258.5,909Z" fill="#FFFFFF" fill-opacity="1">
  </path>
</svg>