<!-- Exported by Character Map UWP -->
<svg height="100%" viewBox="0 64 1024 960" width="100%" xmlns="http://www.w3.org/2000/svg" xmlns:xlink="http://www.w3.org/1999/xlink">
  <path d="M0,160C0,146.667 2.5,134.167 7.5,122.5C12.5,110.833 19.3333,100.667 28,92C36.6667,83.3334 46.8333,76.5001 58.5,71.5C70.1667,66.5001 82.6667,64.0001 96,64L928,64C941.333,64.0001 953.833,66.5001 965.5,71.5C977.167,76.5001 987.333,83.3334 996,92C1004.67,100.667 1011.5,110.833 1016.5,122.5C1021.5,134.167 1024,146.667 1024,160C1024,187.333 1014,210.5 994,229.5L670,538.5C665.333,543.167 661.167,548.167 657.5,553.5C653.833,558.833 650.667,564.333 648,570C642.667,581.667 640,594.333 640,608L640,992C640,1000.67 636.833,1008.17 630.5,1014.5C624.167,1020.83 616.667,1024 608,1024C601.667,1024 595.833,1022.17 590.5,1018.5L398.5,890.5C388.833,884.167 384,875.333 384,864L384,608C384,594.667 381.5,582 376.5,570C373.833,564 370.583,558.417 366.75,553.25C362.917,548.083 358.667,543.167 354,538.5L30,229.5C10,210.5 0,187.333 0,160ZM960,159.5C960,150.833 956.833,143.417 950.5,137.25C944.167,131.083 936.667,128 928,128L96,128C87.3333,128 79.8333,131.083 73.5,137.25C67.1667,143.417 64,150.833 64,159.5C64,169.167 67.3333,177 74,183L398.5,492C414.167,507 426.333,524.667 435,545C443.667,565.333 448,586.333 448,608L448,847L576,932L576,608C576,586.333 580.333,565.333 589,545C597.667,524.667 609.833,507 625.5,492L950,183C956.667,177 960,169.167 960,159.5Z" fill="#FFFFFF" fill-opacity="1">
  </path>
</svg>