<!-- Exported by Character Map UWP -->
<svg height="100%" viewBox="0 64 1024 896" width="100%" xmlns="http://www.w3.org/2000/svg" xmlns:xlink="http://www.w3.org/1999/xlink">
  <path d="M960,512C960,503.333 957.667,495.333 953,488L741.5,154.5C736.167,146.167 729.25,139.667 720.75,135C712.25,130.333 703.167,128 693.5,128C680.5,128 668.917,131.917 658.75,139.75C648.583,147.583 641.667,157.833 638,170.5L452,868C448.333,881.333 442.667,893.667 435,905C427.333,916.333 418.25,926.083 407.75,934.25C397.25,942.417 385.583,948.75 372.75,953.25C359.917,957.75 346.5,960 332.5,960C311.167,960 291.167,954.917 272.5,944.75C253.833,934.583 238.833,920.5 227.5,902.5L17,570.5C5.66667,552.5 0,533 0,512C0,491 5.66667,471.5 17,453.5L236,108.5C244.667,94.5 256.167,83.5834 270.5,75.75C284.833,67.9167 300.333,64.0001 317,64L480,64C488.667,64.0001 496.167,67.1667 502.5,73.5C508.833,79.8334 512,87.3334 512,96C512,104.667 508.833,112.167 502.5,118.5C496.167,124.833 488.667,128 480,128L317,128C311.333,128 306.083,129.333 301.25,132C296.417,134.667 292.667,138.333 290,143L71,488C66.3333,495.333 64,503.333 64,512C64,520.667 66.3333,528.667 71,536L281.5,868C287.167,876.667 294.417,883.5 303.25,888.5C312.083,893.5 321.833,896 332.5,896C346.167,896 358.333,891.833 369,883.5C379.667,875.167 386.833,864.5 390.5,851.5L576.5,154C580.167,140.667 585.667,128.5 593,117.5C600.333,106.5 609.167,97 619.5,89C629.833,81 641.333,74.8334 654,70.5C666.667,66.1667 679.833,64.0001 693.5,64C714.5,64.0001 734,68.9167 752,78.75C770,88.5834 784.5,102.333 795.5,120L1007,453.5C1018.33,471.5 1024,491 1024,512C1024,533 1018.33,552.5 1007,570.5L788.5,915.5C779.5,929.5 767.833,940.417 753.5,948.25C739.167,956.083 723.667,960 707,960L544,960C535.333,960 527.833,956.833 521.5,950.5C515.167,944.167 512,936.667 512,928C512,919.333 515.167,911.833 521.5,905.5C527.833,899.167 535.333,896 544,896L707,896C712.667,896 717.917,894.667 722.75,892C727.583,889.333 731.5,885.667 734.5,881L953,536C957.667,528.667 960,520.667 960,512Z" fill="#000000" fill-opacity="1">
  </path>
</svg>