<!-- Exported by Character Map UWP -->
<svg height="100%" viewBox="64 64 896 896" width="100%" xmlns="http://www.w3.org/2000/svg" xmlns:xlink="http://www.w3.org/1999/xlink">
  <path d="M960,928C960,936.667 956.833,944.167 950.5,950.5C944.167,956.833 936.667,960 928,960C919.333,960 911.833,956.833 905.5,950.5L641,686C609.667,712.333 574.583,732.583 535.75,746.75C496.917,760.917 457,768 416,768C383.667,768 352.5,763.833 322.5,755.5C292.5,747.167 264.5,735.333 238.5,720C212.5,704.667 188.75,686.25 167.25,664.75C145.75,643.25 127.333,619.5 112,593.5C96.6667,567.5 84.8333,539.5 76.5,509.5C68.1667,479.5 64,448.333 64,416C64,383.667 68.1667,352.5 76.5,322.5C84.8333,292.5 96.6667,264.5 112,238.5C127.333,212.5 145.75,188.75 167.25,167.25C188.75,145.75 212.5,127.333 238.5,112C264.5,96.6667 292.5,84.8334 322.5,76.5C352.5,68.1667 383.667,64.0001 416,64C448.333,64.0001 479.5,68.1667 509.5,76.5C539.5,84.8334 567.5,96.6667 593.5,112C619.5,127.333 643.25,145.75 664.75,167.25C686.25,188.75 704.667,212.5 720,238.5C735.333,264.5 747.167,292.5 755.5,322.5C763.833,352.5 768,383.667 768,416C768,457 760.917,496.917 746.75,535.75C732.583,574.583 712.333,609.667 686,641L950.5,905.5C956.833,911.833 960,919.333 960,928ZM704,416C704,389.667 700.583,364.25 693.75,339.75C686.917,315.25 677.25,292.333 664.75,271C652.25,249.667 637.167,230.167 619.5,212.5C601.833,194.833 582.333,179.75 561,167.25C539.667,154.75 516.75,145.083 492.25,138.25C467.75,131.417 442.333,128 416,128C376.333,128 339,135.583 304,150.75C269,165.917 238.5,186.5 212.5,212.5C186.5,238.5 165.917,269 150.75,304C135.583,339 128,376.333 128,416C128,456 135.5,493.5 150.5,528.5C165.5,563.5 186,594 212,620C238,646 268.5,666.5 303.5,681.5C338.5,696.5 376,704 416,704C455.667,704 493,696.417 528,681.25C563,666.083 593.5,645.5 619.5,619.5C645.5,593.5 666.083,563 681.25,528C696.417,493 704,455.667 704,416Z" fill="#FFFFFF" fill-opacity="1">
  </path>
</svg>