<!-- Exported by Character Map UWP -->
<svg height="100%" viewBox="0 0 1024 1024" width="100%" xmlns="http://www.w3.org/2000/svg" xmlns:xlink="http://www.w3.org/1999/xlink">
  <path d="M96,1024C83,1024 70.6667,1021.5 59,1016.5C47.3333,1011.5 37.0833,1004.58 28.25,995.75C19.4167,986.917 12.5,976.667 7.5,965C2.5,953.333 0,941 0,928L0,96C0,83 2.5,70.6667 7.5,59C12.5,47.3334 19.4167,37.0834 28.25,28.25C37.0833,19.4167 47.3333,12.5 59,7.5C70.6667,2.5 83,0 96,0L160,0C173,0 185.333,2.5 197,7.5C208.667,12.5 218.917,19.4167 227.75,28.25C236.583,37.0834 243.5,47.3334 248.5,59C253.5,70.6667 256,83 256,96L256,928C256,941 253.5,953.333 248.5,965C243.5,976.667 236.583,986.917 227.75,995.75C218.917,1004.58 208.667,1011.5 197,1016.5C185.333,1021.5 173,1024 160,1024ZM416,1024C403,1024 390.667,1021.5 379,1016.5C367.333,1011.5 357.083,1004.58 348.25,995.75C339.417,986.917 332.5,976.667 327.5,965C322.5,953.333 320,941 320,928L320,96C320,83 322.5,70.6667 327.5,59C332.5,47.3334 339.417,37.0834 348.25,28.25C357.083,19.4167 367.333,12.5 379,7.5C390.667,2.5 403,0 416,0L480,0C493,0 505.333,2.5 517,7.5C528.667,12.5 538.917,19.4167 547.75,28.25C556.583,37.0834 563.5,47.3334 568.5,59C573.5,70.6667 576,83 576,96L576,928C576,941 573.5,953.333 568.5,965C563.5,976.667 556.583,986.917 547.75,995.75C538.917,1004.58 528.667,1011.5 517,1016.5C505.333,1021.5 493,1024 480,1024ZM160,960C168.667,960 176.167,956.833 182.5,950.5C188.833,944.167 192,936.667 192,928L192,96C192,87.3334 188.833,79.8334 182.5,73.5C176.167,67.1667 168.667,64.0001 160,64L96,64C87.3333,64.0001 79.8333,67.1667 73.5,73.5C67.1667,79.8334 64,87.3334 64,96L64,928C64,936.667 67.1667,944.167 73.5,950.5C79.8333,956.833 87.3333,960 96,960ZM480,960C488.667,960 496.167,956.833 502.5,950.5C508.833,944.167 512,936.667 512,928L512,96C512,87.3334 508.833,79.8334 502.5,73.5C496.167,67.1667 488.667,64.0001 480,64L416,64C407.333,64.0001 399.833,67.1667 393.5,73.5C387.167,79.8334 384,87.3334 384,96L384,928C384,936.667 387.167,944.167 393.5,950.5C399.833,956.833 407.333,960 416,960ZM640.5,301.5C640.5,279.5 646.917,260.167 659.75,243.5C672.583,226.833 689.5,215.333 710.5,209C722.5,205.333 734.833,201.5 747.5,197.5C760.167,193.5 772.833,191.5 785.5,191.5C796.5,191.5 807.083,193.417 817.25,197.25C827.417,201.083 836.583,206.333 844.75,213C852.917,219.667 859.917,227.583 865.75,236.75C871.583,245.917 875.833,255.833 878.5,266.5L1021.5,889C1023.17,896.667 1024,903.833 1024,910.5C1024,932.833 1017.42,952.417 1004.25,969.25C991.083,986.083 973.833,997.5 952.5,1003.5C938.5,1007.5 924.083,1011.83 909.25,1016.5C894.417,1021.17 879.5,1023.5 864.5,1023.5C853.167,1023.5 842.333,1021.58 832,1017.75C821.667,1013.92 812.333,1008.67 804,1002C795.667,995.333 788.583,987.25 782.75,977.75C776.917,968.25 772.833,958 770.5,947L642.5,320.5C641.167,314.833 640.5,308.5 640.5,301.5ZM960,911C960,909.333 959.667,906.833 959,903.5L816,280.5C814.333,273.5 810.583,267.667 804.75,263C798.917,258.333 792.333,256 785,256C776.333,256 766.75,257.75 756.25,261.25C745.75,264.75 736.167,267.833 727.5,270.5C720.833,272.5 715.333,276.417 711,282.25C706.667,288.083 704.5,294.5 704.5,301.5C704.5,302.5 704.5,303.583 704.5,304.75C704.5,305.917 704.667,307 705,308L833,934C834.667,941.667 838.417,947.833 844.25,952.5C850.083,957.167 856.833,959.5 864.5,959.5C868.5,959.5 873.667,958.833 880,957.5C886.333,956.167 892.917,954.5 899.75,952.5C906.583,950.5 913.25,948.5 919.75,946.5C926.25,944.5 931.667,942.833 936,941.5C942.667,939.5 948.333,935.75 953,930.25C957.667,924.75 960,918.333 960,911Z" fill="#FFFFFF" fill-opacity="1">
  </path>
</svg>