<!-- Exported by Character Map UWP -->
<svg height="100%" viewBox="64 0 896 1024" width="100%" xmlns="http://www.w3.org/2000/svg" xmlns:xlink="http://www.w3.org/1999/xlink">
  <path d="M772,64C797,64.0001 820.917,69.0834 843.75,79.25C866.583,89.4167 886.583,103.083 903.75,120.25C920.917,137.417 934.583,157.417 944.75,180.25C954.917,203.083 960,227 960,252L960,416C960,424.667 956.833,432.167 950.5,438.5C944.167,444.833 936.667,448 928,448C919.333,448 911.833,444.833 905.5,438.5C899.167,432.167 896,424.667 896,416L896,253.5C896,236.833 892.583,220.917 885.75,205.75C878.917,190.583 869.75,177.25 858.25,165.75C846.75,154.25 833.417,145.083 818.25,138.25C803.083,131.417 787.167,128 770.5,128L173,128C178.333,133 182.833,137.667 186.5,142C190.167,146.333 192,152.333 192,160C192,168.667 188.833,176.167 182.5,182.5C176.167,188.833 168.667,192 160,192C151.333,192 143.833,188.833 137.5,182.5L73.5,118.5C67.1667,112.167 64,104.667 64,96C64,87.3334 67.1667,79.8334 73.5,73.5L137.5,9.5C143.833,3.16669 151.333,0 160,0C168.667,0 176.167,3.16669 182.5,9.5C188.833,15.8334 192,23.3334 192,32C192,39.6667 190.083,45.6667 186.25,50C182.417,54.3334 178,59.0001 173,64ZM743.5,512C743.5,520 747.25,527.167 754.75,533.5C762.25,539.833 770.583,546.417 779.75,553.25C788.917,560.083 797.25,567.75 804.75,576.25C812.25,584.75 816,595.167 816,607.5C816,614.5 813.917,623.083 809.75,633.25C805.583,643.417 800.583,653.583 794.75,663.75C788.917,673.917 782.833,683.667 776.5,693C770.167,702.333 764.667,709.667 760,715C749.667,727.333 736.5,733.5 720.5,733.5C713.833,733.5 706.75,732.167 699.25,729.5C691.75,726.833 684.417,724 677.25,721C670.083,718 663.25,715.167 656.75,712.5C650.25,709.833 644.5,708.5 639.5,708.5C634.5,708.5 630.5,709.5 627.5,711.5C624.5,713.5 622.083,716 620.25,719C618.417,722 617.083,725.417 616.25,729.25C615.417,733.083 614.667,737 614,741L605.5,786.5C603.5,797.833 599.333,806.583 593,812.75C586.667,818.917 579.167,823.417 570.5,826.25C561.833,829.083 552.583,830.75 542.75,831.25C532.917,831.75 523.5,832 514.5,832L512,832C503,832 493.333,831.75 483,831.25C472.667,830.75 463,829 454,826C445,823 437.167,818.333 430.5,812C423.833,805.667 419.5,796.833 417.5,785.5L407.5,727.5C406.833,722.833 404.417,718.5 400.25,714.5C396.083,710.5 391.5,708.5 386.5,708.5C379.833,708.5 373.083,709.75 366.25,712.25C359.417,714.75 352.5,717.583 345.5,720.75C338.5,723.917 331.333,726.75 324,729.25C316.667,731.75 309.5,733 302.5,733C285.833,733 272.5,726.833 262.5,714.5C257.833,709.167 252.417,701.917 246.25,692.75C240.083,683.583 234.25,673.833 228.75,663.5C223.25,653.167 218.5,643 214.5,633C210.5,623 208.5,614.333 208.5,607C208.5,594 212.25,583.25 219.75,574.75C227.25,566.25 235.5,558.75 244.5,552.25C253.5,545.75 261.75,539.5 269.25,533.5C276.75,527.5 280.5,520.333 280.5,512C280.5,503.667 276.75,496.417 269.25,490.25C261.75,484.083 253.417,477.667 244.25,471C235.083,464.333 226.75,456.75 219.25,448.25C211.75,439.75 208,429.167 208,416.5C208,409.167 210.083,400.5 214.25,390.5C218.417,380.5 223.417,370.417 229.25,360.25C235.083,350.083 241.167,340.417 247.5,331.25C253.833,322.083 259.333,314.667 264,309C274.333,296.667 287.5,290.5 303.5,290.5C310.167,290.5 317.167,291.75 324.5,294.25C331.833,296.75 339,299.583 346,302.75C353,305.917 359.75,308.75 366.25,311.25C372.75,313.75 378.667,315 384,315C391,315 396.333,313.083 400,309.25C403.667,305.417 406.417,300.5 408.25,294.5C410.083,288.5 411.417,281.667 412.25,274C413.083,266.333 414.167,258.583 415.5,250.75C416.833,242.917 418.75,235.417 421.25,228.25C423.75,221.083 427.667,214.833 433,209.5C437,205.5 441.917,202.333 447.75,200C453.583,197.667 459.75,195.917 466.25,194.75C472.75,193.583 479.417,192.833 486.25,192.5C493.083,192.167 499.5,192 505.5,192L513,192C522,192 531.583,192.25 541.75,192.75C551.917,193.25 561.5,195 570.5,198C579.5,201 587.25,205.667 593.75,212C600.25,218.333 604.5,227.167 606.5,238.5L616.5,296.5C617.5,302.5 620.25,307.083 624.75,310.25C629.25,313.417 634.333,315 640,315C645.667,315 651.833,313.75 658.5,311.25C665.167,308.75 672,305.917 679,302.75C686,299.583 693.083,296.75 700.25,294.25C707.417,291.75 714.333,290.5 721,290.5C728.667,290.5 736.083,292.167 743.25,295.5C750.417,298.833 756.333,303.5 761,309.5C765.667,315.167 771.083,322.583 777.25,331.75C783.417,340.917 789.333,350.583 795,360.75C800.667,370.917 805.5,381 809.5,391C813.5,401 815.5,409.667 815.5,417C815.5,430 811.75,440.75 804.25,449.25C796.75,457.75 788.5,465.25 779.5,471.75C770.5,478.25 762.25,484.5 754.75,490.5C747.25,496.5 743.5,503.667 743.5,512ZM679.5,512C679.5,499.667 681.5,488.917 685.5,479.75C689.5,470.583 694.75,462.25 701.25,454.75C707.75,447.25 715.25,440.25 723.75,433.75C732.25,427.25 740.833,420.333 749.5,413C745.167,403 740.333,393.333 735,384C729.667,374.667 723.667,365.667 717,357C705,361.333 692.333,366.167 679,371.5C665.667,376.833 652.333,379.5 639,379.5C631,379.5 623.583,378.5 616.75,376.5C609.917,374.5 603,371.5 596,367.5C585,361.167 576.5,354.083 570.5,346.25C564.5,338.417 560,329.917 557,320.75C554,311.583 551.75,301.75 550.25,291.25C548.75,280.75 547,269.667 545,258C539.667,257.333 534.333,256.833 529,256.5C523.667,256.167 518.167,256 512.5,256C506.833,256 501.333,256.167 496,256.5C490.667,256.833 485.333,257.333 480,258C477.667,269.667 475.75,280.667 474.25,291C472.75,301.333 470.417,311.083 467.25,320.25C464.083,329.417 459.5,338 453.5,346C447.5,354 439,361.167 428,367.5C421,371.833 414.167,374.917 407.5,376.75C400.833,378.583 393.333,379.5 385,379.5C371.667,379.5 358.417,376.833 345.25,371.5C332.083,366.167 319.5,361.167 307.5,356.5C294.833,373.5 283.833,392.167 274.5,412.5C283.167,419.833 291.75,426.833 300.25,433.5C308.75,440.167 316.25,447.25 322.75,454.75C329.25,462.25 334.5,470.583 338.5,479.75C342.5,488.917 344.5,499.667 344.5,512C344.5,524.333 342.5,535.083 338.5,544.25C334.5,553.417 329.25,561.75 322.75,569.25C316.25,576.75 308.75,583.75 300.25,590.25C291.75,596.75 283.167,603.667 274.5,611C278.833,621 283.667,630.667 289,640C294.333,649.333 300.333,658.333 307,667C318.667,662.667 331.083,657.833 344.25,652.5C357.417,647.167 370.5,644.5 383.5,644.5C394.167,644.5 404.333,646.25 414,649.75C423.667,653.25 432.333,658.25 440,664.75C447.667,671.25 454.167,678.917 459.5,687.75C464.833,696.583 468.5,706.167 470.5,716.5L479,766C484.667,766.667 490.083,767.167 495.25,767.5C500.417,767.833 505.833,768 511.5,768C517.167,768 522.667,767.833 528,767.5C533.333,767.167 538.833,766.667 544.5,766C546.167,756 547.75,746.083 549.25,736.25C550.75,726.417 552.917,716.917 555.75,707.75C558.583,698.583 562.583,689.917 567.75,681.75C572.917,673.583 580,666.5 589,660.5C596.667,655.5 604.75,651.583 613.25,648.75C621.75,645.917 630.5,644.5 639.5,644.5C645.5,644.5 651.833,645.333 658.5,647C665.167,648.667 671.833,650.667 678.5,653C685.167,655.333 691.75,657.833 698.25,660.5C704.75,663.167 710.833,665.5 716.5,667.5C729.167,650.5 740.167,631.833 749.5,611.5C740.833,604.167 732.25,597.167 723.75,590.5C715.25,583.833 707.75,576.75 701.25,569.25C694.75,561.75 689.5,553.5 685.5,544.5C681.5,535.5 679.5,524.667 679.5,512ZM576,512C576,521 574.333,529.333 571,537C567.667,544.667 563.083,551.417 557.25,557.25C551.417,563.083 544.667,567.667 537,571C529.333,574.333 521,576 512,576C503,576 494.583,574.333 486.75,571C478.917,567.667 472.167,563.167 466.5,557.5C460.833,551.833 456.333,545.083 453,537.25C449.667,529.417 448,521 448,512C448,503 449.667,494.667 453,487C456.333,479.333 460.917,472.583 466.75,466.75C472.583,460.917 479.333,456.333 487,453C494.667,449.667 503,448 512,448C520.667,448 528.917,449.667 536.75,453C544.583,456.333 551.417,460.917 557.25,466.75C563.083,472.583 567.667,479.417 571,487.25C574.333,495.083 576,503.333 576,512ZM960,928C960,936.667 956.833,944.167 950.5,950.5L886.5,1014.5C880.167,1020.83 872.667,1024 864,1024C855.333,1024 847.833,1020.83 841.5,1014.5C835.167,1008.17 832,1000.67 832,992C832,984.333 833.917,978.333 837.75,974C841.583,969.667 846,965 851,960L252,960C227,960 203.083,954.917 180.25,944.75C157.417,934.583 137.417,920.917 120.25,903.75C103.083,886.583 89.4167,866.583 79.25,843.75C69.0833,820.917 64,797 64,772L64,608C64,599.333 67.1667,591.833 73.5,585.5C79.8333,579.167 87.3333,576 96,576C104.667,576 112.167,579.167 118.5,585.5C124.833,591.833 128,599.333 128,608L128,770.5C128,787.167 131.417,803.083 138.25,818.25C145.083,833.417 154.25,846.75 165.75,858.25C177.25,869.75 190.583,878.917 205.75,885.75C220.917,892.583 236.833,896 253.5,896L851,896C846.333,891.333 842,886.667 838,882C834,877.333 832,871.333 832,864C832,855.333 835.167,847.833 841.5,841.5C847.833,835.167 855.333,832 864,832C872.667,832 880.167,835.167 886.5,841.5L950.5,905.5C956.833,911.833 960,919.333 960,928Z" fill="#FFFFFF" fill-opacity="1">
  </path>
</svg>