<!-- Exported by Character Map UWP -->
<svg height="100%" viewBox="0 0 1024 1024" width="100%" xmlns="http://www.w3.org/2000/svg" xmlns:xlink="http://www.w3.org/1999/xlink">
  <path d="M192,256L192,251C192,216.333 198.917,183.75 212.75,153.25C226.583,122.75 245.25,96.1667 268.75,73.5C292.25,50.8334 319.417,32.9167 350.25,19.75C381.083,6.58337 413.667,0 448,0C483.333,0 516.583,6.66669 547.75,20C578.917,33.3334 606.083,51.5834 629.25,74.75C652.417,97.9167 670.667,125.083 684,156.25C697.333,187.417 704,220.667 704,256C704,291.333 697.333,324.583 684,355.75C670.667,386.917 652.417,414.083 629.25,437.25C606.083,460.417 578.917,478.667 547.75,492C516.583,505.333 483.333,512 448,512C412.667,512 379.417,505.333 348.25,492C317.083,478.667 289.917,460.417 266.75,437.25C243.583,414.083 225.333,386.917 212,355.75C198.667,324.583 192,291.333 192,256ZM640,256L640,252C640,226 634.833,201.583 624.5,178.75C614.167,155.917 600.167,136 582.5,119C564.833,102 544.417,88.5834 521.25,78.75C498.083,68.9167 473.667,64.0001 448,64C421.333,64.0001 396.333,69.0001 373,79C349.667,89.0001 329.333,102.667 312,120C294.667,137.333 281,157.667 271,181C261,204.333 256,229.333 256,256C256,282.667 261,307.667 271,331C281,354.333 294.667,374.667 312,392C329.333,409.333 349.667,423 373,433C396.333,443 421.333,448 448,448C474.667,448 499.667,443 523,433C546.333,423 566.667,409.333 584,392C601.333,374.667 615,354.333 625,331C635,307.667 640,282.667 640,256ZM0,700.5C0,683.5 3.5,667.417 10.5,652.25C17.5,637.083 26.9167,623.833 38.75,612.5C50.5833,601.167 64.25,592.25 79.75,585.75C95.25,579.25 111.5,576 128.5,576L768,576C791.333,576 812.833,581.833 832.5,593.5C852.167,605.167 867.833,621.167 879.5,641.5C873.833,640.5 868.5,640 863.5,640C853.833,640 844.583,641.417 835.75,644.25C826.917,647.083 818.5,651 810.5,656C804.833,650.667 798.25,646.667 790.75,644C783.25,641.333 775.667,640 768,640L128.5,640C119.5,640 111.083,641.667 103.25,645C95.4167,648.333 88.5833,652.833 82.75,658.5C76.9167,664.167 72.3333,670.917 69,678.75C65.6667,686.583 64,695 64,704C64,737 69.5833,766.167 80.75,791.5C91.9167,816.833 107,838.917 126,857.75C145,876.583 167,892.417 192,905.25C217,918.083 243.417,928.5 271.25,936.5C299.083,944.5 327.5,950.333 356.5,954C385.5,957.667 413.333,959.667 440,960L502.5,1022C493.5,1022.67 484.417,1023.17 475.25,1023.5C466.083,1023.83 457,1024 448,1024C414,1024 379.333,1021.67 344,1017C308.667,1012.33 274.417,1004.75 241.25,994.25C208.083,983.75 176.833,970.167 147.5,953.5C118.167,936.833 92.5833,916.5 70.75,892.5C48.9167,868.5 31.6667,840.667 19,809C6.33333,777.333 0,741.167 0,700.5ZM448,864C448,855.333 451.167,847.833 457.5,841.5L585.5,713.5C591.833,707.167 599.333,704 608,704C616.667,704 624.167,707.167 630.5,713.5C636.833,719.833 640,727.333 640,736C640,744.667 636.833,752.167 630.5,758.5L557.5,832L914.5,832L841.5,758.5C835.167,752.167 832,744.667 832,736C832,727.333 835.167,719.833 841.5,713.5C847.833,707.167 855.333,704 864,704C872.667,704 880.167,707.167 886.5,713.5L1014.5,841.5C1020.83,847.833 1024,855.333 1024,864C1024,872.667 1020.83,880.167 1014.5,886.5L886.5,1014.5C880.167,1020.83 872.667,1024 864,1024C855.333,1024 847.833,1020.83 841.5,1014.5C835.167,1008.17 832,1000.67 832,992C832,983.333 835.167,975.833 841.5,969.5L914.5,896L557.5,896L630.5,969.5C636.833,975.833 640,983.333 640,992C640,1000.67 636.833,1008.17 630.5,1014.5C624.167,1020.83 616.667,1024 608,1024C599.333,1024 591.833,1020.83 585.5,1014.5L457.5,886.5C451.167,880.167 448,872.667 448,864Z" fill="#FFFFFF" fill-opacity="1">
  </path>
</svg>