<!-- Exported by Character Map UWP -->
<svg height="100%" viewBox="64 64 897 898" width="100%" xmlns="http://www.w3.org/2000/svg" xmlns:xlink="http://www.w3.org/1999/xlink">
  <path d="M64,353C64,341.667 66.8333,331.083 72.5,321.25C78.1667,311.417 85.8333,303.667 95.5,298L480,73C490,67.0001 500.833,64.0001 512.5,64C524.167,64.0001 535,67.0001 545,73L929.5,298C939.167,303.667 946.833,311.5 952.5,321.5C958.167,331.5 961,342.167 961,353.5C961,364.833 958.167,375.417 952.5,385.25C946.833,395.083 939.167,402.833 929.5,408.5L545,632.5C540.333,635.167 535.25,637.333 529.75,639C524.25,640.667 518.667,641.5 513,641.5C501.333,641.5 490.5,638.5 480.5,632.5L96,408.5C86.3333,402.833 78.5833,395 72.75,385C66.9167,375 64,364.333 64,353ZM513,567C524.667,567 535.333,564.167 545,558.5L897,353L545,147C535,141 524.167,138 512.5,138C500.833,138 490,141 480,147L128,353L480.5,558.5C485.167,561.167 490.333,563.25 496,564.75C501.667,566.25 507.333,567 513,567ZM64,516C64,507 65.6667,498.667 69,491L481,723C490.333,728.333 500.833,731 512.5,731C524.167,731 534.667,728.333 544,723L956,491C959.333,498.667 961,507 961,516C961,527.333 958.167,538 952.5,548C946.833,558 939.167,565.833 929.5,571.5L545,795.5C540.333,798.167 535.25,800.333 529.75,802C524.25,803.667 518.667,804.5 513,804.5C501.333,804.5 490.5,801.5 480.5,795.5L96,571.5C86.3333,565.833 78.5833,558 72.75,548C66.9167,538 64,527.333 64,516ZM64,673C64,664 65.6667,655.667 69,648L481,879.5C490.333,884.833 500.833,887.5 512.5,887.5C524.167,887.5 534.667,884.833 544,879.5L956,648C959.333,655.667 961,664 961,673C961,684.333 958.167,695 952.5,705C946.833,715 939.167,722.833 929.5,728.5L545,952.5C540.333,955.167 535.25,957.333 529.75,959C524.25,960.667 518.667,961.5 513,961.5C501.333,961.5 490.5,958.5 480.5,952.5L96,728.5C86.3333,722.833 78.5833,715 72.75,705C66.9167,695 64,684.333 64,673Z" fill="#000000" fill-opacity="1">
  </path>
</svg>