<!-- Exported by Character Map UWP -->
<svg height="100%" viewBox="8 16 945 945" width="100%" xmlns="http://www.w3.org/2000/svg" xmlns:xlink="http://www.w3.org/1999/xlink">
  <path d="M103.5,960C90.5,960 78.25,957.5 66.75,952.5C55.25,947.5 45.0833,940.75 36.25,932.25C27.4167,923.75 20.4167,913.75 15.25,902.25C10.0833,890.75 7.5,878.5 7.5,865.5C7.5,850.167 10.8333,835.5 17.5,821.5L394,68.5C402.333,51.8334 414.167,38.8334 429.5,29.5C444.833,20.1667 461.667,15.5 480,15.5C498.333,15.5 515.167,20.1667 530.5,29.5C545.833,38.8334 557.667,51.8334 566,68.5L942.5,821.5C949.167,835.5 952.5,850.167 952.5,865.5C952.5,878.5 949.917,890.75 944.75,902.25C939.583,913.75 932.583,923.75 923.75,932.25C914.917,940.75 904.75,947.5 893.25,952.5C881.75,957.5 869.5,960 856.5,960ZM512,616L512,360C512,351.333 508.833,343.833 502.5,337.5C496.167,331.167 488.667,328 480,328C471.333,328 463.833,331.167 457.5,337.5C451.167,343.833 448,351.333 448,360L448,616C448,625 451.083,632.583 457.25,638.75C463.417,644.917 471,648 480,648C489,648 496.583,644.917 502.75,638.75C508.917,632.583 512,625 512,616ZM528,744C528,737.667 526.75,731.583 524.25,725.75C521.75,719.917 518.25,714.75 513.75,710.25C509.25,705.75 504.083,702.25 498.25,699.75C492.417,697.25 486.333,696 480,696C473.333,696 467.083,697.333 461.25,700C455.417,702.667 450.333,706.167 446,710.5C441.667,714.833 438.25,720 435.75,726C433.25,732 432,738.167 432,744.5C432,751.167 433.25,757.417 435.75,763.25C438.25,769.083 441.75,774.083 446.25,778.25C450.75,782.417 455.833,785.75 461.5,788.25C467.167,790.75 473.333,792 480,792C493.333,792 504.667,787.333 514,778C523.333,768.667 528,757.333 528,744Z" fill="#000000" fill-opacity="1">
  </path>
</svg>