<!-- Exported by Character Map UWP -->
<svg height="100%" viewBox="0 0 1024 1024" width="100%" xmlns="http://www.w3.org/2000/svg" xmlns:xlink="http://www.w3.org/1999/xlink">
  <path d="M192,256L192,251C192,216.333 198.917,183.75 212.75,153.25C226.583,122.75 245.25,96.1667 268.75,73.5C292.25,50.8334 319.417,32.9167 350.25,19.75C381.083,6.58337 413.667,0 448,0C483.333,0 516.583,6.66669 547.75,20C578.917,33.3334 606.083,51.5834 629.25,74.75C652.417,97.9167 670.667,125.083 684,156.25C697.333,187.417 704,220.667 704,256C704,291.333 697.333,324.583 684,355.75C670.667,386.917 652.417,414.083 629.25,437.25C606.083,460.417 578.917,478.667 547.75,492C516.583,505.333 483.333,512 448,512C412.667,512 379.417,505.333 348.25,492C317.083,478.667 289.917,460.417 266.75,437.25C243.583,414.083 225.333,386.917 212,355.75C198.667,324.583 192,291.333 192,256ZM256,256L256,260C256,286 261.167,310.417 271.5,333.25C281.833,356.083 295.833,376 313.5,393C331.167,410 351.583,423.417 374.75,433.25C397.917,443.083 422.333,448 448,448C474.667,448 499.667,443 523,433C546.333,423 566.667,409.333 584,392C601.333,374.667 615,354.333 625,331C635,307.667 640,282.667 640,256C640,229.333 635,204.333 625,181C615,157.667 601.333,137.333 584,120C566.667,102.667 546.333,89.0001 523,79C499.667,69.0001 474.667,64.0001 448,64C421.333,64.0001 396.333,69.0001 373,79C349.667,89.0001 329.333,102.667 312,120C294.667,137.333 281,157.667 271,181C261,204.333 256,229.333 256,256ZM1024,736L1024,928C1024,941.333 1021.5,953.833 1016.5,965.5C1011.5,977.167 1004.67,987.333 996,996C987.333,1004.67 977.167,1011.5 965.5,1016.5C953.833,1021.5 941.333,1024 928,1024L608,1024C594.667,1024 582.167,1021.5 570.5,1016.5C558.833,1011.5 548.667,1004.67 540,996C531.333,987.333 524.5,977.167 519.5,965.5C514.5,953.833 512,941.333 512,928L512,736C512,722.667 514.5,710.167 519.5,698.5C524.5,686.833 531.333,676.667 540,668C548.667,659.333 558.833,652.5 570.5,647.5C582.167,642.5 594.667,640 608,640L640,640L640,576C640,567.333 641.667,559.167 645,551.5C648.333,543.833 653,537 659,531C671.667,518.333 686.667,512 704,512L832,512C840.667,512 848.833,513.667 856.5,517C864.167,520.333 871,525 877,531C889.667,543.667 896,558.667 896,576L896,640L928,640C941.333,640 953.833,642.5 965.5,647.5C977.167,652.5 987.333,659.333 996,668C1004.67,676.667 1011.5,686.833 1016.5,698.5C1021.5,710.167 1024,722.667 1024,736ZM576,576C553,576 531.583,581.667 511.75,593C491.917,604.333 476.333,620 465,640L128,640C119,640 110.583,641.667 102.75,645C94.9167,648.333 88.1667,652.833 82.5,658.5C76.8333,664.167 72.3333,670.917 69,678.75C65.6667,686.583 64,695 64,704C64,738.333 69.6667,768.417 81,794.25C92.3333,820.083 107.667,842.5 127,861.5C146.333,880.5 168.833,896.333 194.5,909C220.167,921.667 247.167,931.75 275.5,939.25C303.833,946.75 332.833,952.083 362.5,955.25C392.167,958.417 420.667,960 448,960C448,983.333 453.667,1004.67 465,1024L448,1024C419.333,1024 390.083,1022.67 360.25,1020C330.417,1017.33 301,1012.5 272,1005.5C243,998.5 214.917,989.167 187.75,977.5C160.583,965.833 135.5,951 112.5,933C75.5,904.333 47.5,870.667 28.5,832C9.5,793.333 0,750.667 0,704C0,686.333 3.33333,669.75 10,654.25C16.6667,638.75 25.8333,625.167 37.5,613.5C49.1667,601.833 62.75,592.667 78.25,586C93.75,579.333 110.333,576 128,576ZM832,576L704,576L704,640L832,640Z" fill="#000000" fill-opacity="1">
  </path>
</svg>