<!-- Exported by Character Map UWP -->
<svg height="100%" viewBox="64 0 960 1024" width="100%" xmlns="http://www.w3.org/2000/svg" xmlns:xlink="http://www.w3.org/1999/xlink">
  <path d="M256,192C256,182 258.917,172.667 264.75,164C270.583,155.333 278.167,149.167 287.5,145.5C292.5,143.5 297.5,141.583 302.5,139.75C307.5,137.917 312.5,136.167 317.5,134.5C333.833,128.5 348.5,118.833 361.5,105.5C374.5,92.1667 384.167,77.5 390.5,61.5C393.5,54.1667 396.333,46.8334 399,39.5C401.667,32.1667 405,25.5834 409,19.75C413,13.9167 418.083,9.16669 424.25,5.5C430.417,1.83337 438.333,0 448,0C459.333,0 468.167,2.41669 474.5,7.25C480.833,12.0834 486.167,18.5001 490.5,26.5C494.833,34.5001 498.917,43.4167 502.75,53.25C506.583,63.0834 511.417,72.9167 517.25,82.75C523.083,92.5834 530.75,102.083 540.25,111.25C549.75,120.417 562.5,128 578.5,134L608.5,145.5C617.833,149.167 625.417,155.333 631.25,164C637.083,172.667 640,182 640,192C640,202.333 637.167,211.667 631.5,220C625.833,228.333 618.167,234.333 608.5,238L578.5,249.5C562.5,255.833 549.75,263.5 540.25,272.5C530.75,281.5 523.083,291 517.25,301C511.417,311 506.667,320.917 503,330.75C499.333,340.583 495.333,349.417 491,357.25C486.667,365.083 481.25,371.5 474.75,376.5C468.25,381.5 459.333,384 448,384C437.667,384 428.333,381.167 420,375.5C411.667,369.833 405.667,362.167 402,352.5L390.5,322.5C384.167,306.5 376.5,293.667 367.5,284C358.5,274.333 349,266.583 339,260.75C329,254.917 319.083,250.167 309.25,246.5C299.417,242.833 290.5,238.917 282.5,234.75C274.5,230.583 268.083,225.25 263.25,218.75C258.417,212.25 256,203.333 256,192ZM550.5,192C527.5,182.333 507.083,168.583 489.25,150.75C471.417,132.917 457.667,112.5 448,89.5C438.333,112.5 424.583,132.917 406.75,150.75C388.917,168.583 368.5,182.333 345.5,192C368.5,201.667 388.917,215.417 406.75,233.25C424.583,251.083 438.333,271.5 448,294.5C457.667,271.5 471.417,251.083 489.25,233.25C507.083,215.417 527.5,201.667 550.5,192ZM512,512C512,500.333 515.333,489.667 522,480C528.667,470.333 537.333,463.333 548,459L616,433C634.333,426 648.833,416.75 659.5,405.25C670.167,393.75 678.75,381.5 685.25,368.5C691.75,355.5 697,342.25 701,328.75C705,315.25 709.583,303.167 714.75,292.5C719.917,281.833 726.5,273.083 734.5,266.25C742.5,259.417 753.667,256 768,256C779,256 789.5,259.25 799.5,265.75C809.5,272.25 816.5,280.833 820.5,291.5C822.833,297.167 825.167,303 827.5,309L840,342.5C842.333,348.167 844.667,354 847,360C854,378 863.25,392.333 874.75,403C886.25,413.667 898.5,422.25 911.5,428.75C924.5,435.25 937.75,440.667 951.25,445C964.75,449.333 976.833,454.083 987.5,459.25C998.167,464.417 1006.92,471 1013.75,479C1020.58,487 1024,498 1024,512C1024,523.333 1020.67,533.833 1014,543.5C1007.33,553.167 998.667,560.167 988,564.5L919.5,591C901.167,598 886.667,607.25 876,618.75C865.333,630.25 856.75,642.583 850.25,655.75C843.75,668.917 838.417,682.167 834.25,695.5C830.083,708.833 825.5,720.833 820.5,731.5C815.5,742.167 809,750.917 801,757.75C793,764.583 782,768 768,768C756.333,768 745.667,764.75 736,758.25C726.333,751.75 719.333,743 715,732L689,664C682,646 672.833,631.667 661.5,621C650.167,610.333 637.917,601.667 624.75,595C611.583,588.333 598.333,582.917 585,578.75C571.667,574.583 559.583,569.833 548.75,564.5C537.917,559.167 529.083,552.583 522.25,544.75C515.417,536.917 512,526 512,512ZM946.5,512C928.167,505 911,498 895,491C879,484 864.417,475.833 851.25,466.5C838.083,457.167 826.167,445.917 815.5,432.75C804.833,419.583 795.5,403.167 787.5,383.5L768,333.5L749,383C741.333,403 732.167,419.583 721.5,432.75C710.833,445.917 698.75,457.167 685.25,466.5C671.75,475.833 657,483.917 641,490.75C625,497.583 607.833,504.667 589.5,512C608.5,519 626,525.917 642,532.75C658,539.583 672.583,547.667 685.75,557C698.917,566.333 710.667,577.667 721,591C731.333,604.333 740.5,621 748.5,641L768,690.5C775,672.167 781.917,655 788.75,639C795.583,623 803.667,608.333 813,595C822.333,581.667 833.583,569.75 846.75,559.25C859.917,548.75 876.5,539.5 896.5,531.5ZM64,735.5C64,723.167 67.5,712 74.5,702C81.5,692 90.6667,684.667 102,680L189,646.5C208,639.167 223.083,629.167 234.25,616.5C245.417,603.833 254.5,590.167 261.5,575.5C268.5,560.833 274.25,545.917 278.75,530.75C283.25,515.583 288.417,501.917 294.25,489.75C300.083,477.583 307.333,467.583 316,459.75C324.667,451.917 336.667,448 352,448C364,448 375.083,451.5 385.25,458.5C395.417,465.5 402.833,474.667 407.5,486L441.5,573.5C446.833,587.5 453.833,599.333 462.5,609C471.167,618.667 480.667,626.833 491,633.5C501.333,640.167 512.167,645.75 523.5,650.25C534.833,654.75 546.083,658.917 557.25,662.75C568.417,666.583 579,670.333 589,674C599,677.667 607.75,682.167 615.25,687.5C622.75,692.833 628.75,699.333 633.25,707C637.75,714.667 640,724.167 640,735.5C640,747.833 636.583,759.083 629.75,769.25C622.917,779.417 613.667,786.833 602,791.5L514.5,825.5C495.833,832.833 480.917,842.75 469.75,855.25C458.583,867.75 449.5,881.417 442.5,896.25C435.5,911.083 429.583,926.083 424.75,941.25C419.917,956.417 414.667,970.083 409,982.25C403.333,994.417 396.167,1004.42 387.5,1012.25C378.833,1020.08 367,1024 352,1024C339.333,1024 328,1020.58 318,1013.75C308,1006.92 300.667,997.5 296,985.5L262.5,898.5C255.167,879.5 245.167,864.417 232.5,853.25C219.833,842.083 206.167,833.083 191.5,826.25C176.833,819.417 161.917,813.667 146.75,809C131.583,804.333 117.917,799.167 105.75,793.5C93.5833,787.833 83.5833,780.583 75.75,771.75C67.9167,762.917 64,750.833 64,735.5ZM568.5,735.5C562.167,732.833 555.833,730.333 549.5,728L510.5,713.5C504.167,710.833 497.833,708.333 491.5,706C469.167,697.333 450.833,686.667 436.5,674C422.167,661.333 410.083,647 400.25,631C390.417,615 381.917,597.583 374.75,578.75C367.583,559.917 360,540.167 352,519.5C344,540.5 336.417,560.333 329.25,579C322.083,597.667 313.583,615 303.75,631C293.917,647 281.75,661.333 267.25,674C252.75,686.667 234.333,697.333 212,706L135.5,735.5C156.167,743.5 175.833,751.083 194.5,758.25C213.167,765.417 230.5,773.917 246.5,783.75C262.5,793.583 276.833,805.75 289.5,820.25C302.167,834.75 313,853.167 322,875.5L352,952.5L382,875C390.667,852.667 401.417,834.333 414.25,820C427.083,805.667 441.417,793.583 457.25,783.75C473.083,773.917 490.417,765.417 509.25,758.25C528.083,751.083 547.833,743.5 568.5,735.5Z" fill="#FFFFFF" fill-opacity="1">
  </path>
</svg>