<!-- Exported by Character Map UWP -->
<svg height="100%" viewBox="0 0 960 1024" width="100%" xmlns="http://www.w3.org/2000/svg" xmlns:xlink="http://www.w3.org/1999/xlink">
  <path d="M896,709.5C905.667,712.833 914.417,717.5 922.25,723.5C930.083,729.5 936.833,736.5 942.5,744.5C948.167,752.5 952.5,761.167 955.5,770.5C958.5,779.833 960,789.667 960,800C960,813 957.5,825.333 952.5,837C947.5,848.667 940.583,858.917 931.75,867.75C922.917,876.583 912.667,883.5 901,888.5C889.333,893.5 877,896 864,896C849,896 834.917,892.75 821.75,886.25C808.583,879.75 797.333,870.667 788,859L576,929.5C575.667,942.5 572.917,954.75 567.75,966.25C562.583,977.75 555.667,987.75 547,996.25C538.333,1004.75 528.25,1011.5 516.75,1016.5C505.25,1021.5 493,1024 480,1024C467,1024 454.75,1021.5 443.25,1016.5C431.75,1011.5 421.667,1004.75 413,996.25C404.333,987.75 397.417,977.75 392.25,966.25C387.083,954.75 384.333,942.5 384,929.5L172,859C162.667,870.667 151.417,879.75 138.25,886.25C125.083,892.75 111,896 96,896C83,896 70.6667,893.5 59,888.5C47.3333,883.5 37.0833,876.583 28.25,867.75C19.4167,858.917 12.5,848.667 7.5,837C2.5,825.333 0,813 0,800C0,789.667 1.5,779.833 4.5,770.5C7.5,761.167 11.8333,752.5 17.5,744.5C23.1667,736.5 29.9167,729.5 37.75,723.5C45.5833,717.5 54.3333,712.833 64,709.5L64,378.5C54.3333,375.167 45.5833,370.5 37.75,364.5C29.9167,358.5 23.1667,351.5 17.5,343.5C11.8333,335.5 7.5,326.833 4.5,317.5C1.5,308.167 0,298.333 0,288C0,275 2.5,262.667 7.5,251C12.5,239.333 19.4167,229.083 28.25,220.25C37.0833,211.417 47.3333,204.5 59,199.5C70.6667,194.5 83,192 96,192C108.333,192 120.25,194.333 131.75,199C143.25,203.667 153.5,210.333 162.5,219L384.5,107.5C384.167,105.5 384,103.583 384,101.75C384,99.9167 384,98 384,96C384,83 386.5,70.6667 391.5,59C396.5,47.3334 403.417,37.0834 412.25,28.25C421.083,19.4167 431.333,12.5 443,7.5C454.667,2.5 467,0 480,0C492.667,0 504.833,2.5 516.5,7.5C528.167,12.5 538.417,19.3334 547.25,28C556.083,36.6667 563.167,46.6667 568.5,58C573.833,69.3334 576.5,81.3334 576.5,94C576.5,96.6667 576.417,99.0834 576.25,101.25C576.083,103.417 575.833,105.667 575.5,108L797.5,219C806.5,210.333 816.75,203.667 828.25,199C839.75,194.333 851.667,192 864,192C877,192 889.333,194.5 901,199.5C912.667,204.5 922.917,211.417 931.75,220.25C940.583,229.083 947.5,239.333 952.5,251C957.5,262.667 960,275 960,288C960,298.333 958.5,308.167 955.5,317.5C952.5,326.833 948.167,335.5 942.5,343.5C936.833,351.5 930.083,358.5 922.25,364.5C914.417,370.5 905.667,375.167 896,378.5ZM448,96C448,104.667 451.167,112.167 457.5,118.5C463.833,124.833 471.333,128 480,128C488.667,128 496.167,124.833 502.5,118.5C508.833,112.167 512,104.667 512,96C512,87.3334 508.833,79.8334 502.5,73.5C496.167,67.1667 488.667,64.0001 480,64C471.333,64.0001 463.833,67.1667 457.5,73.5C451.167,79.8334 448,87.3334 448,96ZM768,798.5C768.333,778.5 774.333,760.333 786,744C797.667,727.667 813,716.167 832,709.5L832,378.5C811.333,371.5 795.583,359.75 784.75,343.25C773.917,326.75 768.5,308.167 768.5,287.5C768.5,285.5 768.5,283.583 768.5,281.75C768.5,279.917 768.667,278 769,276L546.5,165C537.5,173.667 527.25,180.333 515.75,185C504.25,189.667 492.333,192 480,192C467.667,192 455.75,189.667 444.25,185C432.75,180.333 422.5,173.667 413.5,165L191.5,276C191.833,278 192,280 192,282C192,284 192,286 192,288C192,298.333 190.5,308.167 187.5,317.5C184.5,326.833 180.167,335.5 174.5,343.5C168.833,351.5 162.083,358.5 154.25,364.5C146.417,370.5 137.667,375.167 128,378.5L128,709.5C147,716.167 162.333,727.667 174,744C185.667,760.333 191.667,778.5 192,798.5L404,869C413.333,857.333 424.583,848.25 437.75,841.75C450.917,835.25 465,832 480,832C495,832 509.083,835.25 522.25,841.75C535.417,848.25 546.667,857.333 556,869ZM64,288C64,296.667 67.1667,304.167 73.5,310.5C79.8333,316.833 87.3333,320 96,320C104.667,320 112.167,316.833 118.5,310.5C124.833,304.167 128,296.667 128,288C128,279.333 124.833,271.833 118.5,265.5C112.167,259.167 104.667,256 96,256C87.3333,256 79.8333,259.167 73.5,265.5C67.1667,271.833 64,279.333 64,288ZM832,288C832,296.667 835.167,304.167 841.5,310.5C847.833,316.833 855.333,320 864,320C872.667,320 880.167,316.833 886.5,310.5C892.833,304.167 896,296.667 896,288C896,279.333 892.833,271.833 886.5,265.5C880.167,259.167 872.667,256 864,256C855.333,256 847.833,259.167 841.5,265.5C835.167,271.833 832,279.333 832,288ZM672,352C680.667,352 688.167,355.167 694.5,361.5C700.833,367.833 704,375.333 704,384C704,389.667 702.417,395.167 699.25,400.5C696.083,405.833 691.833,409.833 686.5,412.5L575,468C575.333,470 575.583,472 575.75,474C575.917,476 576,478 576,480C576,490.333 574.5,500.167 571.5,509.5C568.5,518.833 564.167,527.5 558.5,535.5C552.833,543.5 546.083,550.5 538.25,556.5C530.417,562.5 521.667,567.167 512,570.5L512,704C512,712.667 508.833,720.167 502.5,726.5C496.167,732.833 488.667,736 480,736C471.333,736 463.833,732.833 457.5,726.5C451.167,720.167 448,712.667 448,704L448,570.5C439,567.167 430.583,562.5 422.75,556.5C414.917,550.5 408,543.583 402,535.75C396,527.917 391.333,519.417 388,510.25C384.667,501.083 383,491.667 383,482C383,477.333 383.5,472.667 384.5,468L273.5,412.5C268.167,409.833 263.917,405.833 260.75,400.5C257.583,395.167 256,389.667 256,384C256,375.333 259.167,367.833 265.5,361.5C271.833,355.167 279.333,352 288,352C293,352 297.833,353.167 302.5,355.5L413,411C422,402.667 432.25,396.083 443.75,391.25C455.25,386.417 467.333,384 480,384C492.333,384 504.25,386.333 515.75,391C527.25,395.667 537.5,402.333 546.5,411L657.5,355.5C662.167,353.167 667,352 672,352ZM512,480C512,471.333 508.833,463.833 502.5,457.5C496.167,451.167 488.667,448 480,448C471.333,448 463.833,451.167 457.5,457.5C451.167,463.833 448,471.333 448,480C448,488.667 451.167,496.167 457.5,502.5C463.833,508.833 471.333,512 480,512C488.667,512 496.167,508.833 502.5,502.5C508.833,496.167 512,488.667 512,480ZM128,800C128,791.333 124.833,783.833 118.5,777.5C112.167,771.167 104.667,768 96,768C87.3333,768 79.8333,771.167 73.5,777.5C67.1667,783.833 64,791.333 64,800C64,808.667 67.1667,816.167 73.5,822.5C79.8333,828.833 87.3333,832 96,832C104.667,832 112.167,828.833 118.5,822.5C124.833,816.167 128,808.667 128,800ZM896,800C896,791.333 892.833,783.833 886.5,777.5C880.167,771.167 872.667,768 864,768C855.333,768 847.833,771.167 841.5,777.5C835.167,783.833 832,791.333 832,800C832,808.667 835.167,816.167 841.5,822.5C847.833,828.833 855.333,832 864,832C872.667,832 880.167,828.833 886.5,822.5C892.833,816.167 896,808.667 896,800ZM512,928C512,919.333 508.833,911.833 502.5,905.5C496.167,899.167 488.667,896 480,896C471.333,896 463.833,899.167 457.5,905.5C451.167,911.833 448,919.333 448,928C448,936.667 451.167,944.167 457.5,950.5C463.833,956.833 471.333,960 480,960C488.667,960 496.167,956.833 502.5,950.5C508.833,944.167 512,936.667 512,928Z" fill="#000000" fill-opacity="1">
  </path>
</svg>