<!-- Exported by Character Map UWP -->
<svg height="100%" viewBox="0 1 1024 1023" width="100%" xmlns="http://www.w3.org/2000/svg" xmlns:xlink="http://www.w3.org/1999/xlink">
  <path d="M0,679C0,677 2.08333,670.5 6.25,659.5C10.4167,648.5 15.6667,635.083 22,619.25C28.3333,603.417 35.3333,586.417 43,568.25C50.6667,550.083 58,532.75 65,516.25C72,499.75 78.1667,485.25 83.5,472.75C88.8333,460.25 92.3333,452 94,448C85.3333,428 78.6667,407.417 74,386.25C69.3333,365.083 67,343.5 67,321.5C67,277.833 75.25,236.583 91.75,197.75C108.25,158.917 130.75,124.917 159.25,95.75C187.75,66.5834 221.25,43.5001 259.75,26.5C298.25,9.50006 339.5,1.00006 383.5,1C415.833,1.00006 447.167,5.66675 477.5,15C507.833,24.3334 535.917,37.5834 561.75,54.75C587.583,71.9167 610.583,92.6667 630.75,117C650.917,141.333 667.333,168.5 680,198.5C667.333,195.833 654.75,194.083 642.25,193.25C629.75,192.417 617.167,192 604.5,192C593.167,172.333 579.667,154.583 564,138.75C548.333,122.917 531.083,109.5 512.25,98.5C493.417,87.5001 473.333,79.0001 452,73C430.667,67.0001 408.5,64.0001 385.5,64C350.5,64.0001 317.583,70.7501 286.75,84.25C255.917,97.7501 228.917,116.167 205.75,139.5C182.583,162.833 164.333,189.917 151,220.75C137.667,251.583 131,284.5 131,319.5C131,331.833 131.833,343.333 133.5,354C135.167,364.667 137.417,375.083 140.25,385.25C143.083,395.417 146.5,405.583 150.5,415.75C154.5,425.917 159,436.5 164,447.5L97.5,606.5L194,566C193.333,573 192.833,580 192.5,587C192.167,594 192,601 192,608C192,617.333 192.5,626.667 193.5,636C190.167,637.333 183.917,640 174.75,644C165.583,648 155.083,652.5 143.25,657.5C131.417,662.5 119,667.75 106,673.25C93,678.75 80.8333,683.75 69.5,688.25C58.1667,692.75 48.4167,696.5 40.25,699.5C32.0833,702.5 27,704 25,704C18.3333,704 12.5,701.5 7.5,696.5C2.5,691.5 0,685.667 0,679ZM998.5,1023.5C996.167,1023.5 989.333,1021.33 978,1017C966.667,1012.67 952.833,1007.17 936.5,1000.5C920.167,993.833 902.5,986.583 883.5,978.75C864.5,970.917 846.5,963.417 829.5,956.25C812.5,949.083 797.5,942.667 784.5,937C771.5,931.333 762.833,927.667 758.5,926C710.5,948.667 660,960 607,960C574.333,960 543,955.833 513,947.5C483,939.167 454.917,927.333 428.75,912C402.583,896.667 378.75,878.25 357.25,856.75C335.75,835.25 317.333,811.417 302,785.25C286.667,759.083 274.833,731 266.5,701C258.167,671 254,639.667 254,607C254,574.333 258.25,543 266.75,513C275.25,483 287.167,454.917 302.5,428.75C317.833,402.583 336.333,378.75 358,357.25C379.667,335.75 403.667,317.333 430,302C456.333,286.667 484.5,274.833 514.5,266.5C544.5,258.167 575.833,254 608.5,254C640.833,254 672,258.25 702,266.75C732,275.25 760,287.167 786,302.5C812,317.833 835.667,336.25 857,357.75C878.333,379.25 896.667,403.083 912,429.25C927.333,455.417 939.167,483.5 947.5,513.5C955.833,543.5 960,574.667 960,607C960,660 948.667,710.5 926,758.5C927.667,762.833 931.25,771.5 936.75,784.5C942.25,797.5 948.667,812.5 956,829.5C963.333,846.5 971,864.583 979,883.75C987,902.917 994.333,920.667 1001,937C1007.67,953.333 1013.17,967.25 1017.5,978.75C1021.83,990.25 1024,997 1024,999C1024,1006 1021.42,1011.83 1016.25,1016.5C1011.08,1021.17 1005.17,1023.5 998.5,1023.5ZM636,695C631,686.667 628.5,677 628.5,666C628.5,656.667 630.75,648.417 635.25,641.25C639.75,634.083 645.333,627.333 652,621C658.667,614.667 665.917,608.25 673.75,601.75C681.583,595.25 688.833,587.75 695.5,579.25C702.167,570.75 707.75,561 712.25,550C716.75,539 719,525.667 719,510C719,495.333 715.833,482.75 709.5,472.25C703.167,461.75 695,453.083 685,446.25C675,439.417 663.667,434.417 651,431.25C638.333,428.083 625.5,426.5 612.5,426.5C596.5,426.5 581,428.5 566,432.5C551,436.5 536.667,442.667 523,451L523,519C533.667,508.667 545.833,500.417 559.5,494.25C573.167,488.083 587.5,485 602.5,485C614.833,485 625.833,488.583 635.5,495.75C645.167,502.917 650,513.167 650,526.5C650,535.167 648,543 644,550C640,557 635,563.583 629,569.75C623,575.917 616.583,582.083 609.75,588.25C602.917,594.417 596.5,601 590.5,608C584.5,615 579.5,622.583 575.5,630.75C571.5,638.917 569.5,648.333 569.5,659C569.5,664.667 569.833,670.75 570.5,677.25C571.167,683.75 572.667,689.667 575,695ZM650,795C650,789.667 648.833,784.583 646.5,779.75C644.167,774.917 641.083,770.833 637.25,767.5C633.417,764.167 629,761.5 624,759.5C619,757.5 613.833,756.5 608.5,756.5C603.167,756.5 598,757.417 593,759.25C588,761.083 583.5,763.75 579.5,767.25C575.5,770.75 572.25,774.833 569.75,779.5C567.25,784.167 566,789.333 566,795C566,800.667 567.167,805.833 569.5,810.5C571.833,815.167 575,819.167 579,822.5C583,825.833 587.583,828.417 592.75,830.25C597.917,832.083 603.167,833 608.5,833C619.5,833 629.167,829.583 637.5,822.75C645.833,815.917 650,806.667 650,795Z" fill="#FFFFFF" fill-opacity="1">
  </path>
</svg>