<!-- Exported by Character Map UWP -->
<svg height="100%" viewBox="0 0 960 960" width="100%" xmlns="http://www.w3.org/2000/svg" xmlns:xlink="http://www.w3.org/1999/xlink">
  <path d="M0,480C0,435.667 5.66667,393.083 17,352.25C28.3333,311.417 44.4167,273.167 65.25,237.5C86.0833,201.833 111.083,169.417 140.25,140.25C169.417,111.083 201.833,86.0834 237.5,65.25C273.167,44.4167 311.417,28.3334 352.25,17C393.083,5.66669 435.667,0 480,0C524.333,0 566.917,5.66669 607.75,17C648.583,28.3334 686.833,44.4167 722.5,65.25C758.167,86.0834 790.583,111.083 819.75,140.25C848.917,169.417 873.917,201.833 894.75,237.5C915.583,273.167 931.667,311.417 943,352.25C954.333,393.083 960,435.667 960,480C960,524.333 954.25,566.917 942.75,607.75C931.25,648.583 915.083,686.75 894.25,722.25C873.417,757.75 848.417,790.083 819.25,819.25C790.083,848.417 757.75,873.417 722.25,894.25C686.75,915.083 648.5,931.25 607.5,942.75C566.5,954.25 524,960 480,960C435.667,960 393,954.333 352,943C311,931.667 272.75,915.583 237.25,894.75C201.75,873.917 169.417,848.917 140.25,819.75C111.083,790.583 86.0833,758.25 65.25,722.75C44.4167,687.25 28.3333,649 17,608C5.66667,567 0,524.333 0,480ZM896,480C896,441.667 891.083,404.75 881.25,369.25C871.417,333.75 857.417,300.583 839.25,269.75C821.083,238.917 799.417,210.917 774.25,185.75C749.083,160.583 721.083,138.917 690.25,120.75C659.417,102.583 626.25,88.5834 590.75,78.75C555.25,68.9167 518.333,64.0001 480,64C441.667,64.0001 404.75,68.9167 369.25,78.75C333.75,88.5834 300.583,102.583 269.75,120.75C238.917,138.917 210.917,160.583 185.75,185.75C160.583,210.917 138.917,238.917 120.75,269.75C102.583,300.583 88.5833,333.75 78.75,369.25C68.9167,404.75 64,441.667 64,480C64,518.333 68.9167,555.25 78.75,590.75C88.5833,626.25 102.5,659.417 120.5,690.25C138.5,721.083 160.167,749.167 185.5,774.5C210.833,799.833 238.917,821.5 269.75,839.5C300.583,857.5 333.75,871.417 369.25,881.25C404.75,891.083 441.667,896 480,896C518.333,896 555.25,891.083 590.75,881.25C626.25,871.417 659.417,857.5 690.25,839.5C721.083,821.5 749.167,799.833 774.5,774.5C799.833,749.167 821.5,721.083 839.5,690.25C857.5,659.417 871.417,626.25 881.25,590.75C891.083,555.25 896,518.333 896,480ZM432,288C432,274.667 436.667,263.333 446,254C455.333,244.667 466.667,240 480,240C493.333,240 504.667,244.667 514,254C523.333,263.333 528,274.667 528,288C528,301.333 523.333,312.667 514,322C504.667,331.333 493.333,336 480,336C466.667,336 455.333,331.333 446,322C436.667,312.667 432,301.333 432,288ZM448,672L448,416C448,407.333 451.167,399.833 457.5,393.5C463.833,387.167 471.333,384 480,384C488.667,384 496.167,387.167 502.5,393.5C508.833,399.833 512,407.333 512,416L512,672C512,680.667 508.833,688.167 502.5,694.5C496.167,700.833 488.667,704 480,704C471.333,704 463.833,700.833 457.5,694.5C451.167,688.167 448,680.667 448,672Z" fill="#FFFFFF" fill-opacity="1">
  </path>
</svg>