<!-- Exported by Character Map UWP -->
<svg height="100%" viewBox="64 64 896 896" width="100%" xmlns="http://www.w3.org/2000/svg" xmlns:xlink="http://www.w3.org/1999/xlink">
  <path d="M252.5,960C226.5,960 202,954.833 179,944.5C156,934.167 136,920.25 119,902.75C102,885.25 88.5833,864.833 78.75,841.5C68.9167,818.167 64,793.667 64,768L64,252.5C64,226.5 69.1667,202 79.5,179C89.8333,156 103.75,136 121.25,119C138.75,102 159.167,88.5834 182.5,78.75C205.833,68.9167 230.333,64.0001 256,64L771.5,64C797.5,64.0001 822,69.1667 845,79.5C868,89.8334 888,103.75 905,121.25C922,138.75 935.417,159.167 945.25,182.5C955.083,205.833 960,230.333 960,256L960,536C960,571.333 947.5,601.5 922.5,626.5L626.5,922.5C601.5,947.5 571.333,960 536,960ZM256,896L512,896L512,700.5C512,675.5 516.75,651.917 526.25,629.75C535.75,607.583 548.75,588.083 565.25,571.25C581.75,554.417 600.917,540.75 622.75,530.25C644.583,519.75 667.833,513.833 692.5,512.5C693.5,512.5 694.5,512.5 695.5,512.5L701,512L896,512L896,256C896,238.333 892.667,221.75 886,206.25C879.333,190.75 870.167,177.167 858.5,165.5C846.833,153.833 833.25,144.667 817.75,138C802.25,131.333 785.667,128 768,128L256,128C238.333,128 221.75,131.333 206.25,138C190.75,144.667 177.167,153.833 165.5,165.5C153.833,177.167 144.667,190.75 138,206.25C131.333,221.75 128,238.333 128,256L128,768C128,785.667 131.333,802.25 138,817.75C144.667,833.25 153.833,846.833 165.5,858.5C177.167,870.167 190.75,879.333 206.25,886C221.75,892.667 238.333,896 256,896ZM576,882C576.667,881.333 581.583,876.583 590.75,867.75C599.917,858.917 611.667,847.417 626,833.25C640.333,819.083 656.5,803 674.5,785L785,674.5C803,656.5 819.083,640.333 833.25,626C847.417,611.667 858.917,599.917 867.75,590.75C876.583,581.583 881.333,576.667 882,576L704,576C686.333,576 669.75,579.333 654.25,586C638.75,592.667 625.167,601.833 613.5,613.5C601.833,625.167 592.667,638.75 586,654.25C579.333,669.75 576,686.333 576,704Z" fill="#FFFFFF" fill-opacity="1">
  </path>
</svg>