<!-- Exported by Character Map UWP -->
<svg height="100%" viewBox="0 64 1024 896" width="100%" xmlns="http://www.w3.org/2000/svg" xmlns:xlink="http://www.w3.org/1999/xlink">
  <path d="M156.5,960C135.5,960 115.5,955.75 96.5,947.25C77.5,938.75 60.9167,927.417 46.75,913.25C32.5833,899.083 21.25,882.5 12.75,863.5C4.25,844.5 0,824.5 0,803.5L0,220.5C0,199.5 4.25,179.5 12.75,160.5C21.25,141.5 32.5833,124.917 46.75,110.75C60.9167,96.5834 77.5,85.2501 96.5,76.75C115.5,68.2501 135.5,64.0001 156.5,64L867.5,64C888.5,64.0001 908.5,68.2501 927.5,76.75C946.5,85.2501 963.083,96.5834 977.25,110.75C991.417,124.917 1002.75,141.5 1011.25,160.5C1019.75,179.5 1024,199.5 1024,220.5L1024,803.5C1024,824.5 1019.75,844.5 1011.25,863.5C1002.75,882.5 991.417,899.083 977.25,913.25C963.083,927.417 946.5,938.75 927.5,947.25C908.5,955.75 888.5,960 867.5,960ZM864,896C877,896 889.333,893.5 901,888.5C912.667,883.5 922.917,876.583 931.75,867.75C940.583,858.917 947.5,848.667 952.5,837C957.5,825.333 960,813 960,800L960,224C960,211 957.5,198.667 952.5,187C947.5,175.333 940.583,165.083 931.75,156.25C922.917,147.417 912.667,140.5 901,135.5C889.333,130.5 877,128 864,128L160,128C147,128 134.667,130.5 123,135.5C111.333,140.5 101.083,147.417 92.25,156.25C83.4167,165.083 76.5,175.333 71.5,187C66.5,198.667 64,211 64,224L64,800C64,813 66.5,825.333 71.5,837C76.5,848.667 83.4167,858.917 92.25,867.75C101.083,876.583 111.333,883.5 123,888.5C134.667,893.5 147,896 160,896ZM160,448C151.333,448 143.833,444.833 137.5,438.5C131.167,432.167 128,424.667 128,416L128,224C128,215.333 131.167,207.833 137.5,201.5C143.833,195.167 151.333,192 160,192L864,192C872.667,192 880.167,195.167 886.5,201.5C892.833,207.833 896,215.333 896,224L896,416C896,424.667 892.833,432.167 886.5,438.5C880.167,444.833 872.667,448 864,448ZM192,256L192,384L832,384L832,256ZM608,832C599.333,832 591.833,828.833 585.5,822.5C579.167,816.167 576,808.667 576,800L576,544C576,535.333 579.167,527.833 585.5,521.5C591.833,515.167 599.333,512 608,512L864,512C872.667,512 880.167,515.167 886.5,521.5C892.833,527.833 896,535.333 896,544L896,800C896,808.667 892.833,816.167 886.5,822.5C880.167,828.833 872.667,832 864,832ZM160,640C151.333,640 143.833,636.833 137.5,630.5C131.167,624.167 128,616.667 128,608C128,599.333 131.167,591.833 137.5,585.5C143.833,579.167 151.333,576 160,576L480.5,576C489.167,576 496.667,579.167 503,585.5C509.333,591.833 512.5,599.333 512.5,608C512.5,616.667 509.333,624.167 503,630.5C496.667,636.833 489.167,640 480.5,640ZM640,576L640,768L832,768L832,576ZM160,768C151.333,768 143.833,764.833 137.5,758.5C131.167,752.167 128,744.667 128,736C128,727.333 131.167,719.833 137.5,713.5C143.833,707.167 151.333,704 160,704L480.5,704C489.167,704 496.667,707.167 503,713.5C509.333,719.833 512.5,727.333 512.5,736C512.5,744.667 509.333,752.167 503,758.5C496.667,764.833 489.167,768 480.5,768Z" fill="#000000" fill-opacity="1">
  </path>
</svg>