<!-- Exported by Character Map UWP -->
<svg height="100%" viewBox="0 0 1024 1024" width="100%" xmlns="http://www.w3.org/2000/svg" xmlns:xlink="http://www.w3.org/1999/xlink">
  <path d="M32,544C23.3333,544 15.8333,540.833 9.5,534.5C3.16667,528.167 0,520.667 0,512C0,465 6.08333,419.667 18.25,376C30.4167,332.333 47.6667,291.5 70,253.5C92.3333,215.5 119.083,180.917 150.25,149.75C181.417,118.583 216,91.9167 254,69.75C292,47.5834 332.833,30.4167 376.5,18.25C420.167,6.08337 465.5,0 512.5,0C548.833,0 584.75,3.91669 620.25,11.75C655.75,19.5834 690,30.8334 723,45.5C756,60.1667 787.083,78.3334 816.25,100C845.417,121.667 872,146.167 896,173.5L896,32C896,23.3334 899.167,15.8334 905.5,9.5C911.833,3.16669 919.333,0 928,0C936.667,0 944.167,3.16669 950.5,9.5C956.833,15.8334 960,23.3334 960,32C960,52 960,72.1667 960,92.5L960.5,212.5C960.5,232.5 960.5,252.667 960.5,273C960.5,278.667 960.167,284.25 959.5,289.75C958.833,295.25 957.333,300.25 955,304.75C952.667,309.25 949.333,312.917 945,315.75C940.667,318.583 935,320 928,320L672,320C663.333,320 655.833,316.833 649.5,310.5C643.167,304.167 640,296.667 640,288C640,279.333 643.167,271.833 649.5,265.5C655.833,259.167 663.333,256 672,256L879.5,256C858.5,226 834.417,199.083 807.25,175.25C780.083,151.417 750.75,131.25 719.25,114.75C687.75,98.25 654.5,85.6667 619.5,77C584.5,68.3334 548.667,64.0001 512,64C477.333,64.0001 443.25,67.9167 409.75,75.75C376.25,83.5834 344.333,95 314,110C283.667,125 255.167,143.333 228.5,165C201.833,186.667 178,211.333 157,239C127,278.333 104,321.25 88,367.75C72,414.25 64,462.333 64,512C64,520.667 60.8333,528.167 54.5,534.5C48.1667,540.833 40.6667,544 32,544ZM1024,512C1024,559 1017.92,604.25 1005.75,647.75C993.583,691.25 976.333,732 954,770C931.667,808 905,842.583 874,873.75C843,904.917 808.5,931.667 770.5,954C732.5,976.333 691.75,993.583 648.25,1005.75C604.75,1017.92 559.5,1024 512.5,1024C475.833,1024 439.75,1020.17 404.25,1012.5C368.75,1004.83 334.5,993.583 301.5,978.75C268.5,963.917 237.333,945.75 208,924.25C178.667,902.75 152,878.167 128,850.5L128,992C128,1000.67 124.833,1008.17 118.5,1014.5C112.167,1020.83 104.667,1024 96,1024C87.3333,1024 79.8333,1020.83 73.5,1014.5C67.1667,1008.17 64,1000.67 64,992C64,971.667 64,951.5 64,931.5L63.5,811.5C63.5,791.167 63.5,771 63.5,751C63.5,745.667 63.8333,740.167 64.5,734.5C65.1667,728.833 66.6667,723.75 69,719.25C71.3333,714.75 74.6667,711.083 79,708.25C83.3333,705.417 89,704 96,704L352,704C360.667,704 368.167,707.167 374.5,713.5C380.833,719.833 384,727.333 384,736C384,744.667 380.833,752.167 374.5,758.5C368.167,764.833 360.667,768 352,768L144.5,768C165.5,798.333 189.583,825.333 216.75,849C243.917,872.667 273.333,892.75 305,909.25C336.667,925.75 370,938.333 405,947C440,955.667 475.833,960 512.5,960C547.167,960 581.167,956.083 614.5,948.25C647.833,940.417 679.667,929 710,914C740.333,899 768.833,880.667 795.5,859C822.167,837.333 846,812.667 867,785C897,745.667 920,702.75 936,656.25C952,609.75 960,561.667 960,512C960,503.333 963.167,495.833 969.5,489.5C975.833,483.167 983.333,480 992,480C1000.67,480 1008.17,483.167 1014.5,489.5C1020.83,495.833 1024,503.333 1024,512Z" fill="#FFFFFF" fill-opacity="1">
  </path>
</svg>